<svg width="314" height="150" viewBox="0 0 314 150" fill="none" xmlns="http://www.w3.org/2000/svg">
<path d="M104.494 45.7425C103.546 45.7425 102.73 45.6045 102.046 45.3285C101.374 45.0405 100.852 44.6565 100.48 44.1765C100.108 43.6845 99.8916 43.1385 99.8316 42.5385V42.5025C99.8316 42.4065 99.8676 42.3345 99.9396 42.2865C100.012 42.2265 100.102 42.1965 100.21 42.1965H101.11C101.242 42.1965 101.35 42.2265 101.434 42.2865C101.518 42.3345 101.578 42.4305 101.614 42.5745C101.758 43.0785 102.076 43.4805 102.568 43.7805C103.06 44.0685 103.696 44.2125 104.476 44.2125C105.34 44.2125 106.06 44.0145 106.636 43.6185C107.224 43.2225 107.518 42.6825 107.518 41.9985C107.518 41.2905 107.26 40.7445 106.744 40.3605C106.24 39.9645 105.55 39.7665 104.674 39.7665H103.396C103.276 39.7665 103.174 39.7305 103.09 39.6585C103.018 39.5745 102.982 39.4725 102.982 39.3525V38.7225C102.982 38.5905 103.018 38.4885 103.09 38.4165C103.174 38.3325 103.276 38.2905 103.396 38.2905H104.602C105.37 38.2905 105.976 38.1225 106.42 37.7865C106.876 37.4505 107.104 36.9405 107.104 36.2565C107.104 35.6685 106.858 35.2005 106.366 34.8525C105.874 34.4925 105.262 34.3125 104.53 34.3125C103.774 34.3125 103.156 34.4505 102.676 34.7265C102.196 35.0025 101.896 35.4225 101.776 35.9865C101.716 36.2265 101.572 36.3465 101.344 36.3465H100.372C100.264 36.3465 100.168 36.3105 100.084 36.2385C100.012 36.1665 99.9816 36.0765 99.9936 35.9685C100.078 35.0085 100.51 34.2405 101.29 33.6645C102.07 33.0765 103.162 32.7825 104.566 32.7825C105.478 32.7825 106.258 32.9385 106.906 33.2505C107.566 33.5625 108.058 33.9765 108.382 34.4925C108.718 35.0085 108.886 35.5665 108.886 36.1665C108.886 37.4505 108.406 38.3745 107.446 38.9385C108.07 39.2505 108.538 39.6765 108.85 40.2165C109.162 40.7445 109.318 41.3505 109.318 42.0345C109.318 42.7665 109.12 43.4145 108.724 43.9785C108.328 44.5305 107.764 44.9625 107.032 45.2745C106.312 45.5865 105.466 45.7425 104.494 45.7425ZM112.829 45.5625C112.733 45.5625 112.649 45.5265 112.577 45.4545C112.505 45.3825 112.469 45.2985 112.469 45.2025C112.469 45.1065 112.475 45.0405 112.487 45.0045L116.951 33.3585C117.047 33.0945 117.239 32.9625 117.527 32.9625H118.751C119.039 32.9625 119.231 33.0945 119.327 33.3585L123.773 45.0045L123.809 45.2025C123.809 45.2985 123.773 45.3825 123.701 45.4545C123.629 45.5265 123.545 45.5625 123.449 45.5625H122.531C122.399 45.5625 122.297 45.5325 122.225 45.4725C122.153 45.4005 122.105 45.3285 122.081 45.2565L121.091 42.7005H115.187L114.197 45.2565C114.173 45.3285 114.119 45.4005 114.035 45.4725C113.963 45.5325 113.867 45.5625 113.747 45.5625H112.829ZM120.569 41.1525L118.139 34.7625L115.709 41.1525H120.569ZM127.948 45.5625C127.828 45.5625 127.726 45.5265 127.642 45.4545C127.57 45.3705 127.534 45.2685 127.534 45.1485V33.3945C127.534 33.2625 127.57 33.1605 127.642 33.0885C127.726 33.0045 127.828 32.9625 127.948 32.9625H136.822C136.954 32.9625 137.056 33.0045 137.128 33.0885C137.212 33.1605 137.254 33.2625 137.254 33.3945V45.1485C137.254 45.2685 137.212 45.3705 137.128 45.4545C137.044 45.5265 136.942 45.5625 136.822 45.5625H135.904C135.784 45.5625 135.682 45.5265 135.598 45.4545C135.526 45.3705 135.49 45.2685 135.49 45.1485V34.5825H129.298V45.1485C129.298 45.2685 129.256 45.3705 129.172 45.4545C129.088 45.5265 128.986 45.5625 128.866 45.5625H127.948ZM146.72 45.7425C145.148 45.7425 143.93 45.3345 143.066 44.5185C142.214 43.6905 141.764 42.4485 141.716 40.7925C141.704 40.4325 141.698 39.9225 141.698 39.2625C141.698 38.6025 141.704 38.0985 141.716 37.7505C141.764 36.1305 142.232 34.9005 143.12 34.0605C144.008 33.2085 145.208 32.7825 146.72 32.7825C148.22 32.7825 149.414 33.2085 150.302 34.0605C151.19 34.9005 151.658 36.1305 151.706 37.7505C151.73 38.4465 151.742 38.9505 151.742 39.2625C151.742 39.5625 151.73 40.0725 151.706 40.7925C151.658 42.4485 151.202 43.6905 150.338 44.5185C149.486 45.3345 148.28 45.7425 146.72 45.7425ZM146.72 44.2125C147.668 44.2125 148.424 43.9245 148.988 43.3485C149.552 42.7725 149.858 41.8905 149.906 40.7025C149.93 39.9825 149.942 39.5025 149.942 39.2625C149.942 38.9985 149.93 38.5185 149.906 37.8225C149.858 36.6345 149.546 35.7525 148.97 35.1765C148.406 34.6005 147.656 34.3125 146.72 34.3125C145.772 34.3125 145.01 34.6005 144.434 35.1765C143.87 35.7525 143.564 36.6345 143.516 37.8225C143.504 38.1705 143.498 38.6505 143.498 39.2625C143.498 39.8625 143.504 40.3425 143.516 40.7025C143.564 41.8905 143.87 42.7725 144.434 43.3485C145.01 43.9245 145.772 44.2125 146.72 44.2125ZM164.197 45.5625C164.077 45.5625 163.975 45.5265 163.891 45.4545C163.819 45.3705 163.783 45.2685 163.783 45.1485V34.5825H159.319V37.4805C159.319 39.4125 159.181 40.9545 158.905 42.1065C158.629 43.2585 158.197 44.1045 157.609 44.6445C157.021 45.1845 156.241 45.4845 155.269 45.5445C155.149 45.5565 155.047 45.5205 154.963 45.4365C154.879 45.3525 154.837 45.2445 154.837 45.1125V44.3205C154.837 44.2125 154.867 44.1225 154.927 44.0505C154.999 43.9665 155.095 43.9185 155.215 43.9065C155.995 43.7985 156.583 43.2225 156.979 42.1785C157.387 41.1345 157.591 39.4905 157.591 37.2465V33.3765C157.591 33.2565 157.627 33.1605 157.699 33.0885C157.783 33.0045 157.885 32.9625 158.005 32.9625H165.133C165.253 32.9625 165.349 33.0045 165.421 33.0885C165.505 33.1605 165.547 33.2625 165.547 33.3945V45.1485C165.547 45.2685 165.505 45.3705 165.421 45.4545C165.349 45.5265 165.253 45.5625 165.133 45.5625H164.197ZM170.895 45.5625C170.775 45.5625 170.673 45.5265 170.589 45.4545C170.517 45.3705 170.481 45.2685 170.481 45.1485V33.3945C170.481 33.2625 170.517 33.1605 170.589 33.0885C170.673 33.0045 170.775 32.9625 170.895 32.9625H171.813C171.945 32.9625 172.047 33.0045 172.119 33.0885C172.203 33.1605 172.245 33.2625 172.245 33.3945V38.3625H178.437V33.3945C178.437 33.2625 178.473 33.1605 178.545 33.0885C178.629 33.0045 178.731 32.9625 178.851 32.9625H179.769C179.901 32.9625 180.003 33.0045 180.075 33.0885C180.159 33.1605 180.201 33.2625 180.201 33.3945V45.1485C180.201 45.2685 180.159 45.3705 180.075 45.4545C179.991 45.5265 179.889 45.5625 179.769 45.5625H178.851C178.731 45.5625 178.629 45.5265 178.545 45.4545C178.473 45.3705 178.437 45.2685 178.437 45.1485V39.9825H172.245V45.1485C172.245 45.2685 172.203 45.3705 172.119 45.4545C172.035 45.5265 171.933 45.5625 171.813 45.5625H170.895ZM185.544 45.5625C185.424 45.5625 185.322 45.5265 185.238 45.4545C185.166 45.3705 185.13 45.2625 185.13 45.1305V33.3945C185.13 33.2625 185.166 33.1605 185.238 33.0885C185.322 33.0045 185.424 32.9625 185.544 32.9625H186.48C186.6 32.9625 186.696 33.0045 186.768 33.0885C186.852 33.1725 186.894 33.2745 186.894 33.3945V42.7005L193.608 33.2145C193.704 33.0465 193.854 32.9625 194.058 32.9625H194.94C195.06 32.9625 195.156 33.0045 195.228 33.0885C195.312 33.1605 195.354 33.2625 195.354 33.3945V45.1485C195.354 45.2685 195.312 45.3705 195.228 45.4545C195.156 45.5265 195.06 45.5625 194.94 45.5625H194.022C193.902 45.5625 193.8 45.5265 193.716 45.4545C193.632 45.3705 193.59 45.2685 193.59 45.1485V35.9145L186.894 45.3105C186.798 45.4785 186.648 45.5625 186.444 45.5625H185.544ZM104.494 72.7425C103.546 72.7425 102.73 72.6045 102.046 72.3285C101.374 72.0405 100.852 71.6565 100.48 71.1765C100.108 70.6845 99.8916 70.1385 99.8316 69.5385V69.5025C99.8316 69.4065 99.8676 69.3345 99.9396 69.2865C100.012 69.2265 100.102 69.1965 100.21 69.1965H101.11C101.242 69.1965 101.35 69.2265 101.434 69.2865C101.518 69.3345 101.578 69.4305 101.614 69.5745C101.758 70.0785 102.076 70.4805 102.568 70.7805C103.06 71.0685 103.696 71.2125 104.476 71.2125C105.34 71.2125 106.06 71.0145 106.636 70.6185C107.224 70.2225 107.518 69.6825 107.518 68.9985C107.518 68.2905 107.26 67.7445 106.744 67.3605C106.24 66.9645 105.55 66.7665 104.674 66.7665H103.396C103.276 66.7665 103.174 66.7305 103.09 66.6585C103.018 66.5745 102.982 66.4725 102.982 66.3525V65.7225C102.982 65.5905 103.018 65.4885 103.09 65.4165C103.174 65.3325 103.276 65.2905 103.396 65.2905H104.602C105.37 65.2905 105.976 65.1225 106.42 64.7865C106.876 64.4505 107.104 63.9405 107.104 63.2565C107.104 62.6685 106.858 62.2005 106.366 61.8525C105.874 61.4925 105.262 61.3125 104.53 61.3125C103.774 61.3125 103.156 61.4505 102.676 61.7265C102.196 62.0025 101.896 62.4225 101.776 62.9865C101.716 63.2265 101.572 63.3465 101.344 63.3465H100.372C100.264 63.3465 100.168 63.3105 100.084 63.2385C100.012 63.1665 99.9816 63.0765 99.9936 62.9685C100.078 62.0085 100.51 61.2405 101.29 60.6645C102.07 60.0765 103.162 59.7825 104.566 59.7825C105.478 59.7825 106.258 59.9385 106.906 60.2505C107.566 60.5625 108.058 60.9765 108.382 61.4925C108.718 62.0085 108.886 62.5665 108.886 63.1665C108.886 64.4505 108.406 65.3745 107.446 65.9385C108.07 66.2505 108.538 66.6765 108.85 67.2165C109.162 67.7445 109.318 68.3505 109.318 69.0345C109.318 69.7665 109.12 70.4145 108.724 70.9785C108.328 71.5305 107.764 71.9625 107.032 72.2745C106.312 72.5865 105.466 72.7425 104.494 72.7425ZM112.829 72.5625C112.733 72.5625 112.649 72.5265 112.577 72.4545C112.505 72.3825 112.469 72.2985 112.469 72.2025C112.469 72.1065 112.475 72.0405 112.487 72.0045L116.951 60.3585C117.047 60.0945 117.239 59.9625 117.527 59.9625H118.751C119.039 59.9625 119.231 60.0945 119.327 60.3585L123.773 72.0045L123.809 72.2025C123.809 72.2985 123.773 72.3825 123.701 72.4545C123.629 72.5265 123.545 72.5625 123.449 72.5625H122.531C122.399 72.5625 122.297 72.5325 122.225 72.4725C122.153 72.4005 122.105 72.3285 122.081 72.2565L121.091 69.7005H115.187L114.197 72.2565C114.173 72.3285 114.119 72.4005 114.035 72.4725C113.963 72.5325 113.867 72.5625 113.747 72.5625H112.829ZM120.569 68.1525L118.139 61.7625L115.709 68.1525H120.569ZM135.868 59.9625C135.988 59.9625 136.084 60.0045 136.156 60.0885C136.24 60.1605 136.282 60.2565 136.282 60.3765V72.1485C136.282 72.2685 136.24 72.3705 136.156 72.4545C136.084 72.5265 135.988 72.5625 135.868 72.5625H134.95C134.83 72.5625 134.728 72.5265 134.644 72.4545C134.56 72.3705 134.518 72.2685 134.518 72.1485V67.7745H132.052L129.334 72.0765C129.238 72.2445 129.142 72.3705 129.046 72.4545C128.95 72.5265 128.812 72.5625 128.632 72.5625H127.768C127.672 72.5625 127.588 72.5265 127.516 72.4545C127.444 72.3825 127.408 72.2985 127.408 72.2025C127.408 72.1425 127.426 72.0765 127.462 72.0045L130.252 67.6125C129.424 67.3965 128.782 66.9705 128.326 66.3345C127.87 65.6985 127.642 64.8885 127.642 63.9045C127.642 63.2085 127.792 62.5605 128.092 61.9605C128.404 61.3605 128.866 60.8805 129.478 60.5205C130.102 60.1485 130.858 59.9625 131.746 59.9625H135.868ZM134.518 61.4745H131.89C131.122 61.4745 130.522 61.7025 130.09 62.1585C129.658 62.6025 129.442 63.1965 129.442 63.9405C129.442 65.4885 130.258 66.2625 131.89 66.2625H134.518V61.4745ZM141.631 72.5625C141.511 72.5625 141.409 72.5265 141.325 72.4545C141.253 72.3705 141.217 72.2685 141.217 72.1485V60.3945C141.217 60.2625 141.253 60.1605 141.325 60.0885C141.409 60.0045 141.511 59.9625 141.631 59.9625H146.563C147.847 59.9625 148.813 60.2685 149.461 60.8805C150.109 61.4925 150.433 62.2965 150.433 63.2925C150.433 63.9645 150.277 64.5225 149.965 64.9665C149.665 65.4105 149.305 65.7345 148.885 65.9385C149.389 66.1905 149.815 66.5805 150.163 67.1085C150.511 67.6365 150.685 68.2425 150.685 68.9265C150.685 69.5985 150.529 70.2105 150.217 70.7625C149.917 71.3145 149.467 71.7525 148.867 72.0765C148.267 72.4005 147.547 72.5625 146.707 72.5625H141.631ZM146.293 65.2905C147.049 65.2905 147.625 65.1165 148.021 64.7685C148.429 64.4205 148.633 63.9345 148.633 63.3105C148.633 62.6985 148.435 62.2305 148.039 61.9065C147.643 61.5825 147.061 61.4205 146.293 61.4205H142.981V65.2905H146.293ZM146.473 71.1045C147.229 71.1045 147.817 70.9005 148.237 70.4925C148.669 70.0845 148.885 69.5625 148.885 68.9265C148.885 68.2665 148.669 67.7385 148.237 67.3425C147.817 66.9345 147.229 66.7305 146.473 66.7305H142.981V71.1045H146.473ZM164.256 71.9325C164.292 71.9805 164.31 72.0465 164.31 72.1305C164.31 72.2505 164.268 72.3525 164.184 72.4365C164.112 72.5205 164.016 72.5625 163.896 72.5625H162.87C162.75 72.5625 162.654 72.5385 162.582 72.4905C162.522 72.4425 162.462 72.3765 162.402 72.2925L158.946 66.9825H156.804V72.1485C156.804 72.2685 156.762 72.3705 156.678 72.4545C156.594 72.5265 156.492 72.5625 156.372 72.5625H155.454C155.334 72.5625 155.232 72.5265 155.148 72.4545C155.076 72.3705 155.04 72.2685 155.04 72.1485V60.3945C155.04 60.2625 155.076 60.1605 155.148 60.0885C155.232 60.0045 155.334 59.9625 155.454 59.9625H156.372C156.504 59.9625 156.606 60.0045 156.678 60.0885C156.762 60.1605 156.804 60.2625 156.804 60.3945V65.3625L158.856 65.3805L162.042 60.2505C162.162 60.0585 162.366 59.9625 162.654 59.9625H163.626C163.878 59.9625 164.004 60.0825 164.004 60.3225C164.004 60.3825 163.974 60.4605 163.914 60.5565L160.458 66.0645L164.256 71.9325ZM177.03 59.9625C177.126 59.9625 177.21 59.9985 177.282 60.0705C177.354 60.1425 177.39 60.2265 177.39 60.3225C177.39 60.4185 177.372 60.5025 177.336 60.5745L173.664 68.8905C173.244 69.8385 172.866 70.5645 172.53 71.0685C172.206 71.5605 171.822 71.9325 171.378 72.1845C170.934 72.4365 170.358 72.5625 169.65 72.5625H168.93C168.81 72.5625 168.708 72.5265 168.624 72.4545C168.552 72.3705 168.516 72.2685 168.516 72.1485V71.3925C168.516 71.2725 168.552 71.1705 168.624 71.0865C168.708 71.0025 168.81 70.9605 168.93 70.9605H169.56C170.04 70.9605 170.436 70.8165 170.748 70.5285C171.072 70.2285 171.402 69.7305 171.738 69.0345L167.076 60.5385C167.04 60.4665 167.022 60.4005 167.022 60.3405C167.022 60.2445 167.058 60.1605 167.13 60.0885C167.214 60.0045 167.304 59.9625 167.4 59.9625H168.426C168.606 59.9625 168.75 60.0645 168.858 60.2685L172.602 67.0905L175.608 60.2685C175.644 60.1725 175.704 60.1005 175.788 60.0525C175.872 59.9925 175.962 59.9625 176.058 59.9625H177.03ZM105.088 99.7425C102.004 99.7425 100.42 98.0865 100.336 94.7745C100.324 94.4145 100.318 93.9105 100.318 93.2625C100.318 92.6145 100.324 92.1105 100.336 91.7505C100.384 90.1185 100.828 88.8825 101.668 88.0425C102.508 87.2025 103.648 86.7825 105.088 86.7825C106.528 86.7825 107.668 87.2025 108.508 88.0425C109.348 88.8825 109.792 90.1185 109.84 91.7505C109.864 92.4705 109.876 92.9745 109.876 93.2625C109.876 93.5505 109.864 94.0545 109.84 94.7745C109.756 98.0865 108.172 99.7425 105.088 99.7425ZM105.088 98.6625C106.168 98.6625 107.026 98.3385 107.662 97.6905C108.31 97.0305 108.658 96.0285 108.706 94.6845C108.73 93.9645 108.742 93.4905 108.742 93.2625C108.742 93.0345 108.73 92.5605 108.706 91.8405C108.658 90.4965 108.31 89.5005 107.662 88.8525C107.014 88.1925 106.156 87.8625 105.088 87.8625C104.02 87.8625 103.162 88.1925 102.514 88.8525C101.866 89.5005 101.518 90.4965 101.47 91.8405C101.458 92.2005 101.452 92.6745 101.452 93.2625C101.452 93.8505 101.458 94.3245 101.47 94.6845C101.518 96.0285 101.86 97.0305 102.496 97.6905C103.144 98.3385 104.008 98.6625 105.088 98.6625ZM114.936 99.5625C114.816 99.5625 114.72 99.5265 114.648 99.4545C114.576 99.3825 114.54 99.2865 114.54 99.1665V87.3765C114.54 87.2565 114.576 87.1605 114.648 87.0885C114.72 87.0045 114.816 86.9625 114.936 86.9625H115.314C115.47 86.9625 115.596 87.0345 115.692 87.1785L122.334 97.3305V87.3765C122.334 87.2565 122.37 87.1605 122.442 87.0885C122.514 87.0045 122.61 86.9625 122.73 86.9625H123.054C123.186 86.9625 123.288 86.9985 123.36 87.0705C123.432 87.1425 123.468 87.2445 123.468 87.3765V99.1485C123.468 99.2685 123.432 99.3705 123.36 99.4545C123.288 99.5265 123.192 99.5625 123.072 99.5625H122.676C122.52 99.5625 122.394 99.4905 122.298 99.3465L115.674 89.2305V99.1665C115.674 99.2865 115.632 99.3825 115.548 99.4545C115.476 99.5265 115.38 99.5625 115.26 99.5625H114.936ZM129.04 99.5625C128.92 99.5625 128.824 99.5265 128.752 99.4545C128.68 99.3825 128.644 99.2865 128.644 99.1665V87.3585C128.644 87.2385 128.68 87.1425 128.752 87.0705C128.824 86.9985 128.92 86.9625 129.04 86.9625H129.382C129.502 86.9625 129.598 86.9985 129.67 87.0705C129.742 87.1425 129.778 87.2385 129.778 87.3585V98.4825H135.988C136.12 98.4825 136.222 98.5185 136.294 98.5905C136.366 98.6625 136.402 98.7645 136.402 98.8965V99.1665C136.402 99.2865 136.36 99.3825 136.276 99.4545C136.204 99.5265 136.108 99.5625 135.988 99.5625H129.04ZM140.702 99.5625C140.582 99.5625 140.486 99.5265 140.414 99.4545C140.342 99.3825 140.306 99.2865 140.306 99.1665V87.3585C140.306 87.2385 140.342 87.1425 140.414 87.0705C140.486 86.9985 140.582 86.9625 140.702 86.9625H141.044C141.164 86.9625 141.26 86.9985 141.332 87.0705C141.404 87.1425 141.44 87.2385 141.44 87.3585V99.1665C141.44 99.2865 141.404 99.3825 141.332 99.4545C141.26 99.5265 141.164 99.5625 141.044 99.5625H140.702ZM147.019 99.5625C146.899 99.5625 146.803 99.5265 146.731 99.4545C146.659 99.3825 146.623 99.2865 146.623 99.1665V87.3765C146.623 87.2565 146.659 87.1605 146.731 87.0885C146.803 87.0045 146.899 86.9625 147.019 86.9625H147.397C147.553 86.9625 147.679 87.0345 147.775 87.1785L154.417 97.3305V87.3765C154.417 87.2565 154.453 87.1605 154.525 87.0885C154.597 87.0045 154.693 86.9625 154.813 86.9625H155.137C155.269 86.9625 155.371 86.9985 155.443 87.0705C155.515 87.1425 155.551 87.2445 155.551 87.3765V99.1485C155.551 99.2685 155.515 99.3705 155.443 99.4545C155.371 99.5265 155.275 99.5625 155.155 99.5625H154.759C154.603 99.5625 154.477 99.4905 154.381 99.3465L147.757 89.2305V99.1665C147.757 99.2865 147.715 99.3825 147.631 99.4545C147.559 99.5265 147.463 99.5625 147.343 99.5625H147.019ZM161.124 99.5625C161.004 99.5625 160.908 99.5265 160.836 99.4545C160.764 99.3825 160.728 99.2865 160.728 99.1665V87.3765C160.728 87.2565 160.764 87.1605 160.836 87.0885C160.908 87.0045 161.004 86.9625 161.124 86.9625H168.144C168.276 86.9625 168.378 86.9985 168.45 87.0705C168.522 87.1425 168.558 87.2445 168.558 87.3765V87.6465C168.558 87.7665 168.516 87.8625 168.432 87.9345C168.36 88.0065 168.264 88.0425 168.144 88.0425H161.862V92.6325H167.748C167.88 92.6325 167.982 92.6685 168.054 92.7405C168.126 92.8125 168.162 92.9145 168.162 93.0465V93.3165C168.162 93.4365 168.12 93.5325 168.036 93.6045C167.964 93.6765 167.868 93.7125 167.748 93.7125H161.862V98.4825H168.288C168.42 98.4825 168.522 98.5185 168.594 98.5905C168.666 98.6625 168.702 98.7645 168.702 98.8965V99.1665C168.702 99.2865 168.66 99.3825 168.576 99.4545C168.504 99.5265 168.408 99.5625 168.288 99.5625H161.124Z" fill="white"/>
<path d="M313 20C313 9.50659 304.493 1 294 1H20C9.50656 1 1 9.50659 1 20V130C1 140.493 9.50659 149 20 149H294C304.493 149 313 140.493 313 130V20Z" fill="#0F0F0F" stroke="#01754B" stroke-width="2"/>
<rect x="21.4753" y="21.5625" width="56.1481" height="54.25" rx="11" fill="#0F0F0F" stroke="#01754B" stroke-width="2"/>
<path d="M53.412 37.16V62H48.912V43.496C48.912 43.088 48.924 42.68 48.948 42.272C48.972 41.864 49.032 41.456 49.128 41.048L43.152 42.704L42.576 39.68L48.912 37.16H53.412Z" fill="white"/>
<path d="M243.714 60.1825C243.01 60.1825 242.442 60.0225 242.01 59.7025C241.586 59.3825 241.258 58.9385 241.026 58.3705L241.962 57.8785C242.09 58.2945 242.286 58.6345 242.55 58.8985C242.822 59.1545 243.218 59.2825 243.738 59.2825C244.282 59.2825 244.71 59.1345 245.022 58.8385C245.342 58.5345 245.502 58.1185 245.502 57.5905C245.502 57.0305 245.354 56.6065 245.058 56.3185C244.77 56.0305 244.358 55.8865 243.822 55.8865C243.438 55.8865 243.094 55.9465 242.79 56.0665C242.486 56.1865 242.242 56.3825 242.058 56.6545L241.218 56.4985L241.686 52.1425H246.138V53.0425H242.502L242.19 55.5385L242.166 55.6465H242.19C242.382 55.4465 242.626 55.2865 242.922 55.1665C243.226 55.0465 243.586 54.9865 244.002 54.9865C244.506 54.9865 244.942 55.0945 245.31 55.3105C245.686 55.5185 245.978 55.8145 246.186 56.1985C246.394 56.5825 246.498 57.0305 246.498 57.5425C246.498 58.0865 246.378 58.5585 246.138 58.9585C245.906 59.3505 245.582 59.6545 245.166 59.8705C244.75 60.0785 244.266 60.1825 243.714 60.1825ZM259.265 53.6305V60.0625H258.317V55.9585C258.317 55.7905 258.321 55.6145 258.329 55.4305C258.345 55.2465 258.361 55.0665 258.377 54.8905H258.341L256.241 60.0625H255.353L253.313 54.8905H253.277C253.301 55.2505 253.313 55.6185 253.313 55.9945V60.0625H252.365V53.6305H253.769L255.797 58.8025L257.861 53.6305H259.265ZM262.314 57.5545C262.314 57.6505 262.31 57.7945 262.302 57.9865C262.294 58.1785 262.282 58.3705 262.266 58.5625C262.258 58.7545 262.25 58.9065 262.242 59.0185L265.686 53.6305H266.982V60.0625H265.998V56.2705C265.998 56.1425 265.998 55.9745 265.998 55.7665C266.006 55.5585 266.014 55.3545 266.022 55.1545C266.03 54.9465 266.038 54.7905 266.046 54.6865L262.626 60.0625H261.318V53.6305H262.314V57.5545ZM270.085 53.6305V56.3065H273.577V53.6305H274.633V60.0625H273.577V57.1945H270.085V60.0625H269.029V53.6305H270.085ZM275.661 53.6305H276.789L278.181 57.2905C278.301 57.6105 278.409 57.9185 278.505 58.2145C278.601 58.5025 278.673 58.7785 278.721 59.0425H278.769C278.817 58.8425 278.893 58.5825 278.997 58.2625C279.101 57.9345 279.209 57.6065 279.321 57.2785L280.629 53.6305H281.769L278.997 60.9505C278.773 61.5585 278.481 62.0425 278.121 62.4025C277.769 62.7625 277.281 62.9425 276.657 62.9425C276.465 62.9425 276.297 62.9305 276.153 62.9065C276.009 62.8905 275.885 62.8705 275.781 62.8465V62.0065C275.869 62.0225 275.973 62.0385 276.093 62.0545C276.221 62.0705 276.353 62.0785 276.489 62.0785C276.857 62.0785 277.153 61.9745 277.377 61.7665C277.609 61.5585 277.789 61.2825 277.917 60.9385L278.253 60.0865L275.661 53.6305ZM287.226 54.5185H285.126V60.0625H284.082V54.5185H282.006V53.6305H287.226V54.5185Z" fill="white"/>
<path d="M290.439 85.7647C292.506 89.4968 293.73 93.7399 293.88 98.2518L289.882 98.384C289.891 98.6506 289.895 98.9185 289.895 99.1875C289.895 99.4565 289.891 99.7244 289.882 99.991L293.88 100.123C293.73 104.635 292.506 108.878 290.439 112.61L286.94 110.673C286.682 111.14 286.408 111.597 286.119 112.045L289.48 114.213C287.126 117.864 283.931 120.945 280.143 123.201L278.096 119.764C277.637 120.037 277.168 120.296 276.689 120.541L278.508 124.103C274.752 126.022 270.491 127.161 265.94 127.298L265.819 123.3C265.549 123.308 265.277 123.312 265.004 123.312C264.73 123.312 264.456 123.308 264.184 123.3L264.063 127.298C259.509 127.16 255.218 126.021 251.419 124.103L253.221 120.532C252.737 120.288 252.262 120.028 251.796 119.755L249.77 123.204C245.945 120.957 242.698 117.888 240.295 114.254L243.631 112.048C243.335 111.6 243.055 111.143 242.79 110.677L239.312 112.653C237.186 108.912 235.918 104.656 235.763 100.128L239.761 99.9916C239.752 99.7248 239.747 99.4567 239.747 99.1875C239.747 98.9183 239.752 98.6502 239.761 98.3834L235.763 98.2467C235.918 93.7193 237.186 89.4627 239.312 85.7215L242.79 87.6981C243.055 87.232 243.335 86.7748 243.631 86.3273L240.295 84.1211C242.698 80.4866 245.945 77.4183 249.77 75.171L251.796 78.6199C252.262 78.3467 252.737 78.0874 253.221 77.8427L251.419 74.272C255.218 72.3539 259.509 71.2151 264.063 71.0768L264.184 75.0749C264.456 75.0667 264.73 75.0625 265.004 75.0625C265.277 75.0625 265.549 75.0666 265.819 75.0748L265.94 71.0766C270.491 71.2143 274.752 72.3531 278.508 74.2718L276.689 77.834C277.168 78.0787 277.637 78.338 278.096 78.6114L280.143 75.1745C283.931 77.4299 287.126 80.5115 289.48 84.1619L286.119 86.33C286.408 86.7778 286.682 87.2354 286.94 87.7022L290.439 85.7647Z" stroke="#696969" stroke-width="8" stroke-dasharray="2 14"/>
<path d="M264.821 71.5312V99.1875L279.358 74.8125" stroke="#01754B" stroke-width="2" stroke-linecap="round"/>
</svg>
