<svg width="20" height="20" viewBox="0 0 20 20" fill="none" xmlns="http://www.w3.org/2000/svg">
<rect width="20" height="20" rx="3" fill="#C4C4C4"/>
<path fill-rule="evenodd" clip-rule="evenodd" d="M6.22087 0.888496C7.19837 0.843496 7.51004 0.833496 10 0.833496C12.49 0.833496 12.8017 0.844329 13.7784 0.888496C14.755 0.932663 15.4217 1.0885 16.005 1.31433C16.6159 1.54516 17.17 1.906 17.6284 2.37266C18.095 2.83016 18.455 3.3835 18.685 3.99516C18.9117 4.5785 19.0667 5.24516 19.1117 6.22016C19.1567 7.19933 19.1667 7.51099 19.1667 10.0002C19.1667 12.4902 19.1559 12.8018 19.1117 13.7793C19.0675 14.7543 18.9117 15.421 18.685 16.0043C18.455 16.6161 18.0944 17.1703 17.6284 17.6285C17.17 18.0952 16.6159 18.4552 16.005 18.6852C15.4217 18.9118 14.755 19.0668 13.78 19.1118C12.8017 19.1568 12.49 19.1668 10 19.1668C7.51004 19.1668 7.19837 19.156 6.22087 19.1118C5.24587 19.0677 4.57921 18.9118 3.99587 18.6852C3.38414 18.4551 2.82989 18.0945 2.37171 17.6285C1.90536 17.1707 1.54447 16.6167 1.31421 16.0052C1.08837 15.4218 0.933374 14.7552 0.888374 13.7802C0.843374 12.801 0.833374 12.4893 0.833374 10.0002C0.833374 7.51016 0.844207 7.19849 0.888374 6.22183C0.932541 5.24516 1.08837 4.5785 1.31421 3.99516C1.54481 3.38356 1.90597 2.82959 2.37254 2.37183C2.83007 1.90558 3.38377 1.5447 3.99504 1.31433C4.57837 1.0885 5.24504 0.933496 6.22004 0.888496H6.22087ZM13.7042 2.5385C12.7375 2.49433 12.4475 2.48516 10 2.48516C7.55254 2.48516 7.26254 2.49433 6.29587 2.5385C5.40171 2.57933 4.91671 2.7285 4.59337 2.85433C4.16587 3.021 3.86004 3.2185 3.53921 3.53933C3.23508 3.83521 3.00102 4.1954 2.85421 4.5935C2.72837 4.91683 2.57921 5.40183 2.53837 6.296C2.49421 7.26266 2.48504 7.55266 2.48504 10.0002C2.48504 12.4477 2.49421 12.7377 2.53837 13.7043C2.57921 14.5985 2.72837 15.0835 2.85421 15.4068C3.00087 15.8043 3.23504 16.1652 3.53921 16.461C3.83504 16.7652 4.19587 16.9993 4.59337 17.146C4.91671 17.2718 5.40171 17.421 6.29587 17.4618C7.26254 17.506 7.55171 17.5152 10 17.5152C12.4484 17.5152 12.7375 17.506 13.7042 17.4618C14.5984 17.421 15.0834 17.2718 15.4067 17.146C15.8342 16.9793 16.14 16.7818 16.4609 16.461C16.765 16.1652 16.9992 15.8043 17.1459 15.4068C17.2717 15.0835 17.4209 14.5985 17.4617 13.7043C17.5059 12.7377 17.515 12.4477 17.515 10.0002C17.515 7.55266 17.5059 7.26266 17.4617 6.296C17.4209 5.40183 17.2717 4.91683 17.1459 4.5935C16.9792 4.166 16.7817 3.86016 16.4609 3.53933C16.165 3.23522 15.8048 3.00117 15.4067 2.85433C15.0834 2.7285 14.5984 2.57933 13.7042 2.5385ZM8.82921 12.826C9.48309 13.0982 10.2112 13.1349 10.8891 12.9299C11.5671 12.7249 12.1529 12.2909 12.5464 11.702C12.9399 11.1131 13.1168 10.4059 13.0467 9.70108C12.9767 8.99628 12.6642 8.33764 12.1625 7.83766C11.8427 7.51806 11.456 7.27334 11.0303 7.12112C10.6046 6.9689 10.1504 6.91296 9.70045 6.95734C9.25051 7.00172 8.816 7.14531 8.42821 7.37777C8.04042 7.61023 7.70899 7.92578 7.45779 8.3017C7.20659 8.67763 7.04186 9.10457 6.97547 9.5518C6.90908 9.99902 6.94267 10.4554 7.07382 10.8881C7.20498 11.3208 7.43044 11.719 7.73397 12.0541C8.03751 12.3892 8.41156 12.6528 8.82921 12.826ZM6.66837 6.6685C7.10589 6.23097 7.62531 5.88391 8.19696 5.64713C8.7686 5.41035 9.38129 5.28847 10 5.28847C10.6188 5.28847 11.2315 5.41035 11.8031 5.64713C12.3748 5.88391 12.8942 6.23097 13.3317 6.6685C13.7692 7.10602 14.1163 7.62543 14.3531 8.19708C14.5899 8.76872 14.7117 9.38141 14.7117 10.0002C14.7117 10.6189 14.5899 11.2316 14.3531 11.8032C14.1163 12.3749 13.7692 12.8943 13.3317 13.3318C12.4481 14.2154 11.2497 14.7118 10 14.7118C8.75042 14.7118 7.55199 14.2154 6.66837 13.3318C5.78476 12.4482 5.28835 11.2498 5.28835 10.0002C5.28835 8.75054 5.78476 7.55211 6.66837 6.6685ZM15.7567 5.99016C15.8651 5.88789 15.9519 5.7649 16.012 5.62847C16.072 5.49205 16.104 5.34497 16.1062 5.19594C16.1084 5.0469 16.0806 4.89895 16.0246 4.76084C15.9686 4.62272 15.8854 4.49725 15.78 4.39186C15.6746 4.28647 15.5491 4.20329 15.411 4.14726C15.2729 4.09123 15.125 4.06348 14.9759 4.06565C14.8269 4.06782 14.6798 4.09987 14.5434 4.15991C14.407 4.21994 14.284 4.30674 14.1817 4.41516C13.9828 4.62602 13.8739 4.9061 13.8781 5.19594C13.8823 5.48578 13.9994 5.76256 14.2043 5.96753C14.4093 6.1725 14.6861 6.28952 14.9759 6.29374C15.2658 6.29797 15.5458 6.18907 15.7567 5.99016Z" fill="black"/>
</svg>
