<svg width="220" height="50" viewBox="0 0 220 50" fill="none" xmlns="http://www.w3.org/2000/svg">
<rect x="2" y="2" width="216" height="46" rx="23" fill="black"/>
<path d="M54.688 30.5C54.5813 30.5 54.4907 30.468 54.416 30.404C54.352 30.3293 54.32 30.2387 54.32 30.132V20.74H50.352V23.316C50.352 25.0333 50.2293 26.404 49.984 27.428C49.7387 28.452 49.3547 29.204 48.832 29.684C48.3093 30.164 47.616 30.4307 46.752 30.484C46.6453 30.4947 46.5547 30.4627 46.48 30.388C46.4053 30.3133 46.368 30.2173 46.368 30.1V29.396C46.368 29.3 46.3947 29.22 46.448 29.156C46.512 29.0813 46.5973 29.0387 46.704 29.028C47.3973 28.932 47.92 28.42 48.272 27.492C48.6347 26.564 48.816 25.1027 48.816 23.108V19.668C48.816 19.5613 48.848 19.476 48.912 19.412C48.9867 19.3373 49.0773 19.3 49.184 19.3H55.52C55.6267 19.3 55.712 19.3373 55.776 19.412C55.8507 19.476 55.888 19.5667 55.888 19.684V30.132C55.888 30.2387 55.8507 30.3293 55.776 30.404C55.712 30.468 55.6267 30.5 55.52 30.5H54.688ZM65.5373 22.18C65.6226 22.18 65.6973 22.212 65.7613 22.276C65.8359 22.34 65.8733 22.4147 65.8733 22.5V30.132C65.8733 30.2387 65.8359 30.3293 65.7613 30.404C65.6973 30.468 65.6119 30.5 65.5052 30.5H64.7533C64.6466 30.5 64.5559 30.468 64.4813 30.404C64.4173 30.3293 64.3853 30.2387 64.3853 30.132V24.324L59.9533 30.26C59.8359 30.42 59.6973 30.5 59.5373 30.5H58.8173C58.7213 30.5 58.6359 30.468 58.5613 30.404C58.4973 30.3293 58.4653 30.2493 58.4653 30.164V22.548C58.4653 22.4413 58.4973 22.356 58.5613 22.292C58.6359 22.2173 58.7266 22.18 58.8333 22.18H59.6013C59.7079 22.18 59.7933 22.2173 59.8573 22.292C59.9319 22.356 59.9693 22.4413 59.9693 22.548V28.324L64.3853 22.42C64.5026 22.26 64.6413 22.18 64.8013 22.18H65.5373ZM73.4633 30.5C73.3566 30.5 73.2659 30.468 73.1913 30.404C73.1273 30.3293 73.0953 30.2387 73.0953 30.132V27.124C72.5513 27.636 71.7353 27.892 70.6473 27.892C69.6766 27.892 68.9406 27.6787 68.4393 27.252C67.9379 26.8253 67.6873 26.1587 67.6873 25.252V22.548C67.6873 22.4413 67.7193 22.356 67.7833 22.292C67.8579 22.2173 67.9486 22.18 68.0553 22.18H68.8393C68.9459 22.18 69.0313 22.2173 69.0953 22.292C69.1699 22.356 69.2073 22.4413 69.2073 22.548V25.156C69.2073 25.636 69.3459 25.988 69.6233 26.212C69.9006 26.4253 70.3379 26.532 70.9353 26.532C71.6286 26.532 72.1619 26.4467 72.5353 26.276C72.9086 26.1053 73.0953 25.8173 73.0953 25.412V22.548C73.0953 22.4413 73.1273 22.356 73.1913 22.292C73.2659 22.2173 73.3566 22.18 73.4633 22.18H74.2633C74.3699 22.18 74.4553 22.2173 74.5193 22.292C74.5939 22.356 74.6313 22.4413 74.6313 22.548V30.132C74.6313 30.2387 74.5939 30.3293 74.5193 30.404C74.4553 30.468 74.3699 30.5 74.2633 30.5H73.4633ZM77.3801 30.5C77.2735 30.5 77.1828 30.468 77.1081 30.404C77.0441 30.3293 77.0121 30.2387 77.0121 30.132V22.548C77.0121 22.4413 77.0441 22.356 77.1081 22.292C77.1828 22.2173 77.2735 22.18 77.3801 22.18H78.1481C78.2548 22.18 78.3401 22.2173 78.4041 22.292C78.4788 22.356 78.5161 22.4413 78.5161 22.548V25.62H82.8681V22.548C82.8681 22.4413 82.9001 22.356 82.9641 22.292C83.0388 22.2173 83.1295 22.18 83.2361 22.18H83.9881C84.0948 22.18 84.1801 22.2173 84.2441 22.292C84.3188 22.356 84.3561 22.4413 84.3561 22.548V30.132C84.3561 30.2387 84.3188 30.3293 84.2441 30.404C84.1801 30.468 84.0948 30.5 83.9881 30.5H83.2361C83.1295 30.5 83.0388 30.468 82.9641 30.404C82.9001 30.3293 82.8681 30.2387 82.8681 30.132V26.9H78.5161V30.132C78.5161 30.2387 78.4788 30.3293 78.4041 30.404C78.3401 30.468 78.2548 30.5 78.1481 30.5H77.3801ZM87.1301 30.5C87.0235 30.5 86.9328 30.468 86.8581 30.404C86.7941 30.3293 86.7621 30.2387 86.7621 30.132V22.548C86.7621 22.4413 86.7941 22.356 86.8581 22.292C86.9328 22.2173 87.0235 22.18 87.1301 22.18H87.8981C88.0048 22.18 88.0901 22.2173 88.1541 22.292C88.2288 22.356 88.2661 22.4413 88.2661 22.548V24.9H89.9301C90.9861 24.9 91.7701 25.1507 92.2821 25.652C92.8048 26.1427 93.0661 26.8413 93.0661 27.748C93.0661 28.6867 92.7888 29.38 92.2341 29.828C91.6901 30.276 90.8581 30.5 89.7381 30.5H87.1301ZM94.5701 30.5C94.4635 30.5 94.3728 30.468 94.2981 30.404C94.2341 30.3293 94.2021 30.2387 94.2021 30.132V22.548C94.2021 22.4413 94.2341 22.356 94.2981 22.292C94.3728 22.2173 94.4635 22.18 94.5701 22.18H95.3381C95.4448 22.18 95.5301 22.2173 95.5941 22.292C95.6688 22.356 95.7061 22.4413 95.7061 22.548V30.132C95.7061 30.2387 95.6688 30.3293 95.5941 30.404C95.5301 30.468 95.4448 30.5 95.3381 30.5H94.5701ZM89.7861 29.3C90.4475 29.3 90.9221 29.1827 91.2101 28.948C91.5088 28.7133 91.6581 28.3133 91.6581 27.748C91.6581 27.1827 91.5088 26.7667 91.2101 26.5C90.9221 26.2333 90.4475 26.1 89.7861 26.1H88.2501V29.3H89.7861ZM105.162 22.18C105.248 22.18 105.322 22.212 105.386 22.276C105.461 22.34 105.498 22.4147 105.498 22.5V30.132C105.498 30.2387 105.461 30.3293 105.386 30.404C105.322 30.468 105.237 30.5 105.13 30.5H104.378C104.272 30.5 104.181 30.468 104.106 30.404C104.042 30.3293 104.01 30.2387 104.01 30.132V24.324L99.5783 30.26C99.4609 30.42 99.3223 30.5 99.1623 30.5H98.4423C98.3463 30.5 98.2609 30.468 98.1863 30.404C98.1223 30.3293 98.0903 30.2493 98.0903 30.164V22.548C98.0903 22.4413 98.1223 22.356 98.1863 22.292C98.2609 22.2173 98.3516 22.18 98.4583 22.18H99.2263C99.3329 22.18 99.4183 22.2173 99.4823 22.292C99.5569 22.356 99.5943 22.4413 99.5943 22.548V28.324L104.01 22.42C104.128 22.26 104.266 22.18 104.426 22.18H105.162ZM101.834 21.076C100.981 21.076 100.368 20.8893 99.9943 20.516C99.6209 20.1427 99.4343 19.6627 99.4343 19.076C99.4343 18.9907 99.4609 18.9213 99.5143 18.868C99.5676 18.804 99.6423 18.772 99.7383 18.772H100.282C100.378 18.772 100.453 18.804 100.506 18.868C100.56 18.9213 100.586 18.9907 100.586 19.076C100.586 19.748 101.002 20.084 101.834 20.084C102.666 20.084 103.082 19.748 103.082 19.076C103.082 18.9907 103.109 18.9213 103.162 18.868C103.216 18.804 103.29 18.772 103.386 18.772H103.946C104.042 18.772 104.117 18.804 104.17 18.868C104.224 18.9213 104.25 18.9907 104.25 19.076C104.25 19.652 104.058 20.132 103.674 20.516C103.301 20.8893 102.688 21.076 101.834 21.076ZM118.706 30.036C118.759 30.1 118.786 30.1693 118.786 30.244C118.786 30.3187 118.754 30.3827 118.69 30.436C118.637 30.4787 118.562 30.5 118.466 30.5H117.49C117.319 30.5 117.181 30.42 117.074 30.26L114.754 26.916H113.25V30.132C113.25 30.2387 113.213 30.3293 113.138 30.404C113.074 30.468 112.989 30.5 112.882 30.5H112.13C112.023 30.5 111.933 30.468 111.858 30.404C111.794 30.3293 111.762 30.2387 111.762 30.132V22.548C111.762 22.4413 111.794 22.356 111.858 22.292C111.933 22.2173 112.023 22.18 112.13 22.18H112.882C112.989 22.18 113.074 22.2173 113.138 22.292C113.213 22.356 113.25 22.4413 113.25 22.548V25.62H114.722L116.866 22.42C116.994 22.26 117.138 22.18 117.298 22.18H118.13C118.226 22.18 118.306 22.2067 118.37 22.26C118.434 22.3027 118.466 22.3613 118.466 22.436C118.466 22.4893 118.439 22.5533 118.386 22.628L116.002 26.164L118.706 30.036ZM122.66 30.66C122.138 30.66 121.652 30.5533 121.204 30.34C120.756 30.1267 120.399 29.8387 120.132 29.476C119.876 29.1027 119.748 28.692 119.748 28.244C119.748 27.54 120.036 26.964 120.612 26.516C121.199 26.0573 121.988 25.7587 122.98 25.62L125.364 25.284V24.82C125.364 23.732 124.74 23.188 123.492 23.188C123.023 23.188 122.639 23.2893 122.34 23.492C122.042 23.684 121.818 23.9133 121.668 24.18C121.636 24.276 121.594 24.3453 121.54 24.388C121.498 24.4307 121.434 24.452 121.348 24.452H120.66C120.564 24.452 120.479 24.42 120.404 24.356C120.34 24.2813 120.308 24.196 120.308 24.1C120.319 23.844 120.436 23.556 120.66 23.236C120.895 22.9053 121.252 22.6227 121.732 22.388C122.212 22.1427 122.804 22.02 123.508 22.02C124.703 22.02 125.562 22.3027 126.084 22.868C126.607 23.4227 126.868 24.116 126.868 24.948V30.132C126.868 30.2387 126.831 30.3293 126.756 30.404C126.692 30.468 126.607 30.5 126.5 30.5H125.764C125.658 30.5 125.567 30.468 125.492 30.404C125.428 30.3293 125.396 30.2387 125.396 30.132V29.444C125.162 29.7853 124.82 30.0733 124.372 30.308C123.924 30.5427 123.354 30.66 122.66 30.66ZM122.996 29.46C123.69 29.46 124.255 29.236 124.692 28.788C125.14 28.3293 125.364 27.6733 125.364 26.82V26.372L123.508 26.644C122.751 26.7507 122.18 26.932 121.796 27.188C121.412 27.4333 121.22 27.748 121.22 28.132C121.22 28.5587 121.396 28.8893 121.748 29.124C122.1 29.348 122.516 29.46 122.996 29.46ZM136.448 26.148C136.459 26.2547 136.464 26.4253 136.464 26.66C136.464 26.8627 136.459 27.0067 136.448 27.092C136.406 28.1693 136.059 29.0333 135.408 29.684C134.768 30.3347 133.862 30.66 132.688 30.66C131.483 30.66 130.566 30.3187 129.936 29.636C129.307 28.9533 128.971 28.0147 128.928 26.82L128.912 25.86L128.928 24.9C128.939 23.3747 129.142 22.2333 129.536 21.476C129.942 20.708 130.512 20.1587 131.248 19.828C131.995 19.4867 133.2 19.0973 134.864 18.66L135.248 18.564L135.328 18.548C135.414 18.548 135.488 18.58 135.552 18.644C135.627 18.6973 135.67 18.7613 135.68 18.836L135.808 19.492L135.824 19.588C135.824 19.6627 135.798 19.7267 135.744 19.78C135.702 19.8333 135.638 19.8707 135.552 19.892L134.752 20.084C133.526 20.3827 132.646 20.6387 132.112 20.852C131.579 21.0653 131.163 21.4013 130.864 21.86C130.576 22.308 130.416 22.98 130.384 23.876C130.64 23.492 131.003 23.1827 131.472 22.948C131.942 22.7027 132.438 22.58 132.96 22.58C134.038 22.58 134.875 22.9107 135.472 23.572C136.08 24.2227 136.406 25.0813 136.448 26.148ZM134.912 27.028C134.923 26.9533 134.928 26.8307 134.928 26.66C134.928 26.468 134.923 26.324 134.912 26.228C134.891 25.4493 134.688 24.8467 134.304 24.42C133.931 23.9827 133.44 23.764 132.832 23.764C132.15 23.764 131.59 23.9827 131.152 24.42C130.726 24.8467 130.496 25.4493 130.464 26.228L130.448 26.66L130.464 27.028C130.496 27.8173 130.71 28.4253 131.104 28.852C131.499 29.268 132.027 29.476 132.688 29.476C133.36 29.476 133.894 29.268 134.288 28.852C134.683 28.4253 134.891 27.8173 134.912 27.028ZM145.537 22.18C145.623 22.18 145.697 22.212 145.761 22.276C145.836 22.34 145.873 22.4147 145.873 22.5V30.132C145.873 30.2387 145.836 30.3293 145.761 30.404C145.697 30.468 145.612 30.5 145.505 30.5H144.753C144.647 30.5 144.556 30.468 144.481 30.404C144.417 30.3293 144.385 30.2387 144.385 30.132V24.324L139.953 30.26C139.836 30.42 139.697 30.5 139.537 30.5H138.817C138.721 30.5 138.636 30.468 138.561 30.404C138.497 30.3293 138.465 30.2493 138.465 30.164V22.548C138.465 22.4413 138.497 22.356 138.561 22.292C138.636 22.2173 138.727 22.18 138.833 22.18H139.601C139.708 22.18 139.793 22.2173 139.857 22.292C139.932 22.356 139.969 22.4413 139.969 22.548V28.324L144.385 22.42C144.503 22.26 144.641 22.18 144.801 22.18H145.537ZM148.583 30.5C148.477 30.5 148.386 30.468 148.311 30.404C148.247 30.3293 148.215 30.2387 148.215 30.132V22.548C148.215 22.4413 148.247 22.356 148.311 22.292C148.386 22.2173 148.477 22.18 148.583 22.18H149.351C149.458 22.18 149.543 22.2173 149.607 22.292C149.682 22.356 149.719 22.4413 149.719 22.548V25.62H154.071V22.548C154.071 22.4413 154.103 22.356 154.167 22.292C154.242 22.2173 154.333 22.18 154.439 22.18H155.191C155.298 22.18 155.383 22.2173 155.447 22.292C155.522 22.356 155.559 22.4413 155.559 22.548V30.132C155.559 30.2387 155.522 30.3293 155.447 30.404C155.383 30.468 155.298 30.5 155.191 30.5H154.439C154.333 30.5 154.242 30.468 154.167 30.404C154.103 30.3293 154.071 30.2387 154.071 30.132V26.9H149.719V30.132C149.719 30.2387 149.682 30.3293 149.607 30.404C149.543 30.468 149.458 30.5 149.351 30.5H148.583ZM161.293 30.66C160.195 30.66 159.315 30.324 158.653 29.652C158.003 28.9693 157.645 28.0413 157.581 26.868L157.565 26.324L157.581 25.796C157.656 24.644 158.019 23.7267 158.669 23.044C159.331 22.3613 160.2 22.02 161.277 22.02C162.461 22.02 163.379 22.3987 164.029 23.156C164.68 23.9027 165.005 24.916 165.005 26.196V26.468C165.005 26.5747 164.968 26.6653 164.893 26.74C164.829 26.804 164.744 26.836 164.637 26.836H159.101V26.98C159.133 27.6733 159.341 28.2653 159.725 28.756C160.12 29.236 160.637 29.476 161.277 29.476C161.768 29.476 162.168 29.38 162.477 29.188C162.797 28.9853 163.032 28.7773 163.181 28.564C163.277 28.436 163.347 28.3613 163.389 28.34C163.443 28.308 163.533 28.292 163.661 28.292H164.445C164.541 28.292 164.621 28.3187 164.685 28.372C164.749 28.4253 164.781 28.5 164.781 28.596C164.781 28.8307 164.632 29.1133 164.333 29.444C164.045 29.7747 163.635 30.0627 163.101 30.308C162.579 30.5427 161.976 30.66 161.293 30.66ZM163.485 25.732V25.684C163.485 24.948 163.283 24.3507 162.877 23.892C162.483 23.4227 161.949 23.188 161.277 23.188C160.605 23.188 160.072 23.4227 159.677 23.892C159.293 24.3507 159.101 24.948 159.101 25.684V25.732H163.485ZM169.462 30.5C169.356 30.5 169.265 30.468 169.19 30.404C169.126 30.3293 169.094 30.2387 169.094 30.132V23.46H166.31C166.204 23.46 166.113 23.428 166.038 23.364C165.974 23.2893 165.942 23.1987 165.942 23.092V22.548C165.942 22.4413 165.974 22.356 166.038 22.292C166.113 22.2173 166.204 22.18 166.31 22.18H173.35C173.457 22.18 173.542 22.2173 173.606 22.292C173.681 22.356 173.718 22.4413 173.718 22.548V23.092C173.718 23.1987 173.681 23.2893 173.606 23.364C173.542 23.428 173.457 23.46 173.35 23.46H170.566V30.132C170.566 30.2387 170.534 30.3293 170.47 30.404C170.406 30.468 170.321 30.5 170.214 30.5H169.462Z" fill="white"/>
<rect x="2" y="2" width="216" height="46" rx="23" stroke="#01754B" stroke-width="4"/>
</svg>
