<?xml version="1.0" standalone="no"?>
<!DOCTYPE svg PUBLIC "-//W3C//DTD SVG 20010904//EN"
 "http://www.w3.org/TR/2001/REC-SVG-20010904/DTD/svg10.dtd">
<svg version="1.0" xmlns="http://www.w3.org/2000/svg"
 width="1456.000000pt" height="1456.000000pt" viewBox="0 0 1456.000000 1456.000000"
 preserveAspectRatio="xMidYMid meet">
<metadata>
Created by potrace 1.14, written by Peter Selinger 2001-2017
</metadata>
<g transform="translate(0.000000,1456.000000) scale(0.100000,-0.100000)"
fill="#000000" stroke="none">
<path d="M3789 11756 c-2 -2 -45 -7 -96 -10 -51 -3 -103 -8 -116 -11 -13 -4
-48 -8 -78 -10 -30 -2 -54 -4 -54 -5 0 -1 -11 -3 -25 -5 -14 -2 -65 -11 -115
-20 -49 -9 -99 -18 -110 -20 -11 -2 -21 -4 -22 -5 -2 -2 -12 -4 -23 -5 -11 -1
-21 -3 -22 -5 -3 -2 -16 -5 -58 -13 -14 -3 -59 -15 -100 -27 -41 -12 -84 -24
-95 -27 -43 -11 -121 -35 -140 -43 -11 -5 -56 -21 -100 -36 -44 -15 -96 -34
-115 -43 -19 -8 -37 -15 -40 -16 -18 -4 -321 -146 -336 -157 -7 -5 -31 -19
-55 -31 -64 -33 -136 -75 -196 -114 -29 -18 -55 -32 -59 -31 -3 2 -10 -5 -15
-14 -6 -10 -14 -18 -19 -18 -8 0 -192 -128 -240 -167 -304 -247 -459 -397
-654 -638 -53 -66 -105 -129 -114 -141 -25 -30 -180 -261 -215 -319 -135 -227
-253 -473 -334 -695 -19 -52 -36 -99 -37 -105 -1 -5 -4 -14 -7 -20 -4 -5 -10
-23 -14 -40 -5 -16 -9 -32 -10 -35 -1 -3 -6 -20 -10 -38 -4 -18 -12 -35 -16
-38 -5 -3 -7 -9 -4 -14 3 -5 1 -20 -5 -34 -5 -15 -12 -37 -14 -49 -3 -12 -14
-65 -26 -117 -31 -135 -28 -120 -47 -230 -3 -19 -7 -44 -9 -55 -7 -38 -15
-101 -19 -151 -2 -27 -4 -49 -5 -49 -1 0 -4 -36 -8 -80 -12 -154 -6 -735 8
-735 3 0 6 -8 7 -17 3 -48 13 -141 18 -168 3 -16 15 -79 26 -140 11 -60 22
-119 24 -130 1 -11 5 -27 8 -35 4 -8 16 -53 27 -100 12 -47 31 -114 42 -150
12 -36 21 -71 21 -77 0 -7 4 -13 9 -13 4 0 7 -3 6 -7 -2 -8 30 -111 41 -128 3
-5 6 -15 7 -21 4 -27 104 -252 171 -384 97 -192 102 -201 228 -395 70 -109
241 -338 285 -382 18 -18 30 -33 27 -33 -6 0 124 -140 219 -234 136 -135 359
-325 466 -396 21 -14 38 -28 38 -32 0 -5 7 -8 15 -8 8 0 15 -4 15 -10 0 -5 6
-10 13 -10 7 0 22 -8 33 -18 20 -18 64 -48 99 -68 11 -6 67 -39 125 -74 101
-60 260 -143 365 -190 28 -12 64 -28 80 -35 57 -26 110 -47 180 -71 86 -31 89
-32 96 -30 3 0 13 -5 22 -13 10 -7 17 -10 17 -6 0 4 7 2 15 -5 8 -7 15 -10 15
-6 0 3 17 -1 38 -9 37 -14 196 -60 242 -69 14 -3 57 -12 95 -21 39 -8 95 -20
125 -25 30 -6 66 -12 80 -16 14 -3 41 -7 60 -9 19 -2 46 -6 60 -8 25 -6 103
-14 195 -22 28 -3 108 -7 178 -10 70 -2 132 -7 137 -10 6 -4 10 -1 10 5 0 7 6
8 19 0 12 -6 22 -6 26 -1 3 6 17 6 35 1 17 -5 30 -6 30 -2 0 4 35 7 78 8 143
2 356 23 512 50 14 3 41 7 60 9 19 3 43 8 52 11 10 3 30 7 45 10 16 3 55 12
88 21 33 8 69 17 80 18 11 2 58 15 105 30 47 14 93 27 102 30 56 13 235 79
314 116 23 10 44 19 47 19 3 0 36 14 74 32 37 17 70 32 73 33 22 6 236 121
329 177 34 21 67 38 72 38 5 0 9 4 9 9 0 5 9 13 20 16 11 3 26 12 32 18 7 7
33 25 58 41 56 36 236 172 270 203 14 13 28 23 33 23 8 0 39 -31 297 -300 96
-100 209 -218 250 -260 41 -43 154 -161 250 -261 192 -201 398 -408 420 -424
24 -17 82 -42 121 -53 60 -16 188 -8 242 16 26 12 47 19 47 17 0 -7 38 24 92
75 26 25 48 49 48 54 0 5 6 17 13 25 21 25 56 129 59 176 4 61 -40 223 -64
233 -4 2 -8 8 -8 14 0 10 -26 39 -140 158 -36 37 -144 150 -240 250 -96 101
-202 211 -235 245 -62 65 -349 364 -499 520 -47 49 -86 92 -86 95 0 3 11 17
25 32 14 15 25 31 25 37 0 5 4 11 8 13 9 4 114 150 167 233 21 33 48 76 60 95
69 106 235 430 235 456 0 8 5 14 10 14 6 0 10 7 10 15 0 8 12 40 27 72 15 32
28 63 29 68 2 9 58 169 72 205 6 18 6 16 20 65 6 22 12 43 12 47 1 4 10 31 20
60 10 29 16 56 14 60 -3 5 0 8 7 8 7 0 10 2 7 6 -3 3 -2 22 4 42 5 20 11 46
13 57 2 11 11 54 20 95 13 63 33 177 50 290 2 14 6 54 9 90 4 36 9 83 11 105
5 38 16 263 16 350 2 150 -19 411 -47 610 -3 17 -6 39 -8 50 -4 31 -18 108
-23 130 -3 11 -6 29 -8 40 -2 11 -10 46 -18 78 -8 31 -12 57 -9 57 2 0 -1 7
-8 15 -7 8 -10 15 -7 15 3 0 1 15 -4 33 -6 17 -12 39 -14 47 -2 8 -11 40 -20
70 -9 30 -17 62 -20 70 -4 20 -83 240 -94 265 -5 11 -21 49 -36 85 -64 154
-117 262 -229 464 -24 43 -62 103 -113 179 -29 43 -53 81 -53 84 0 2 -6 10
-12 17 -7 8 -20 24 -28 36 -8 12 -20 28 -27 35 -7 7 -9 15 -6 19 4 3 2 6 -4 6
-5 0 -29 27 -53 60 -24 33 -47 60 -52 60 -4 0 -8 6 -8 13 0 7 -8 19 -17 28
-10 8 -34 35 -53 59 -84 106 -407 417 -514 495 -23 16 -45 35 -51 41 -5 6 -37
31 -70 54 -33 24 -62 46 -65 50 -9 10 -314 207 -350 225 -19 10 -37 21 -40 24
-5 6 -57 34 -190 103 -111 57 -398 177 -425 178 -3 0 -19 7 -35 15 -17 9 -30
14 -30 11 0 -2 -32 7 -71 20 -39 13 -80 26 -92 29 -41 9 -112 27 -127 32 -8 4
-19 5 -24 4 -4 -1 -22 3 -40 8 -17 6 -47 12 -66 15 -19 2 -42 7 -50 10 -8 3
-35 8 -60 11 -63 8 -99 13 -145 20 -22 3 -60 8 -85 11 -54 6 -706 15 -711 10z
m251 -796 c0 -3 26 -5 57 -5 53 0 57 -2 64 -27 4 -16 4 -28 -1 -28 -9 0 -7
-26 3 -36 3 -4 2 -15 -3 -25 -7 -12 -7 -20 0 -24 7 -4 7 -12 0 -25 -6 -10 -6
-21 -2 -24 5 -3 6 -26 2 -51 -4 -25 -3 -48 2 -51 5 -3 5 -11 -1 -18 -6 -7 -6
-17 -1 -26 5 -8 6 -18 3 -24 -9 -14 -9 -67 0 -73 4 -2 3 -13 -3 -23 -7 -13 -7
-21 0 -25 6 -4 7 -13 1 -24 -5 -9 -6 -23 -1 -31 4 -7 4 -24 0 -36 -6 -14 -5
-26 0 -29 7 -4 6 -13 0 -25 -7 -13 -7 -21 0 -25 6 -4 7 -11 3 -18 -8 -14 -9
-58 0 -80 3 -9 2 -19 -3 -22 -6 -4 -7 -13 -1 -24 6 -10 6 -23 1 -31 -5 -8 -4
-22 1 -32 6 -12 6 -25 -1 -37 -7 -14 -7 -22 0 -26 7 -4 7 -11 2 -18 -5 -7 -6
-21 -2 -32 4 -11 4 -30 -1 -42 -5 -15 -5 -23 2 -23 6 0 6 -7 -1 -19 -7 -14 -7
-22 1 -27 7 -4 7 -10 1 -16 -7 -7 -7 -19 -2 -33 5 -13 6 -25 4 -28 -9 -8 -9
-81 -1 -94 4 -6 3 -14 -2 -18 -7 -4 -7 -15 -1 -30 6 -16 6 -25 0 -25 -6 0 -6
-9 0 -25 6 -17 6 -25 -1 -25 -6 0 -7 -5 -4 -11 9 -13 10 -117 2 -125 -3 -3 -2
-17 3 -30 6 -15 6 -24 0 -24 -6 0 -6 -9 0 -25 6 -17 6 -25 -1 -25 -6 0 -7 -5
-3 -11 8 -14 8 -134 0 -148 -4 -5 -3 -12 2 -15 9 -5 8 -59 -2 -75 -4 -5 -2
-13 4 -16 7 -4 8 -11 2 -18 -5 -7 -6 -21 -2 -32 4 -11 4 -30 -1 -42 -5 -15 -5
-23 2 -23 6 0 6 -7 -1 -19 -7 -14 -7 -22 1 -27 7 -4 7 -10 1 -16 -7 -7 -7 -19
-2 -33 5 -13 6 -25 4 -28 -9 -8 -9 -81 -1 -94 4 -6 3 -14 -3 -18 -7 -4 -7 -12
0 -24 5 -10 6 -21 3 -25 -9 -9 -9 -67 0 -73 4 -2 3 -13 -3 -23 -7 -13 -7 -21
0 -25 7 -4 7 -12 1 -23 -5 -9 -6 -23 -1 -32 5 -9 5 -22 0 -30 -5 -8 -4 -22 1
-32 6 -12 6 -18 0 -18 -7 0 -7 -9 -1 -25 5 -14 6 -25 2 -25 -9 0 -6 -75 3 -90
3 -6 2 -10 -4 -10 -7 0 -7 -8 -1 -25 6 -15 6 -25 0 -25 -5 0 -5 -13 0 -31 7
-25 6 -30 -5 -25 -8 3 -15 2 -15 -2 0 -4 -18 -8 -41 -9 -22 -1 -69 -15 -104
-31 -104 -49 -172 -123 -212 -232 -34 -90 -21 -260 23 -311 8 -9 12 -18 9 -21
-5 -5 83 -104 180 -204 22 -22 119 -123 215 -223 96 -101 207 -216 245 -256
39 -40 147 -152 240 -250 94 -98 199 -208 235 -245 36 -37 144 -149 240 -250
96 -100 218 -226 270 -281 52 -54 160 -167 240 -250 80 -83 172 -180 205 -214
33 -34 75 -78 94 -98 l33 -35 -59 -44 c-33 -23 -73 -52 -88 -63 -15 -11 -33
-26 -40 -32 -8 -7 -16 -13 -20 -13 -4 0 -27 -15 -53 -32 -26 -18 -56 -38 -67
-44 -27 -15 -146 -83 -165 -94 -30 -18 -203 -100 -280 -132 -14 -6 -34 -14
-45 -19 -20 -8 -100 -37 -120 -43 -5 -2 -23 -8 -38 -14 -16 -7 -36 -12 -46
-12 -10 0 -21 -3 -25 -7 -5 -6 -72 -26 -156 -48 -8 -2 -15 -4 -15 -5 0 -1 -9
-3 -20 -4 -11 -2 -45 -8 -75 -15 -75 -16 -98 -20 -145 -26 -22 -3 -47 -8 -55
-10 -14 -3 -47 -7 -185 -21 -33 -4 -99 -7 -147 -8 -49 0 -88 -5 -88 -9 0 -5
-4 -6 -9 -3 -5 3 -80 8 -167 11 -88 3 -169 7 -181 9 -12 3 -54 8 -94 11 -40 4
-82 9 -93 11 -12 2 -37 7 -56 10 -40 6 -65 11 -100 19 -14 3 -34 7 -45 9 -11
2 -51 11 -88 21 -37 9 -73 18 -80 19 -7 2 -19 5 -27 8 -22 9 -133 42 -145 44
-20 3 -231 87 -295 117 -36 17 -67 31 -70 32 -17 3 -254 133 -324 178 -52 32
-212 141 -216 146 -3 3 -34 28 -70 56 -36 27 -74 59 -86 70 -12 11 -43 39 -70
61 -69 58 -174 164 -174 176 0 5 -4 6 -10 3 -5 -3 -10 -3 -10 2 0 4 -19 29
-43 55 -23 26 -58 65 -77 88 -19 23 -39 47 -45 53 -5 7 -30 39 -55 72 -25 33
-53 69 -62 79 -10 11 -18 25 -18 32 0 7 -3 14 -7 16 -12 5 -53 66 -53 78 0 5
-4 10 -8 10 -5 0 -17 17 -28 38 -32 58 -49 87 -55 92 -3 3 -16 26 -28 52 -13
27 -27 50 -32 54 -5 3 -9 14 -9 25 0 10 -3 19 -8 19 -4 0 -18 27 -31 60 -13
33 -28 60 -33 60 -4 0 -8 6 -8 13 0 7 -17 55 -38 107 -40 97 -90 237 -96 268
-1 9 -6 24 -9 32 -6 16 -29 96 -33 119 -1 7 -7 34 -13 60 -6 25 -13 60 -16 76
-45 234 -52 301 -60 497 -2 65 -7 122 -10 128 -3 5 -2 10 4 10 7 0 7 8 1 24
-5 13 -7 26 -4 29 3 3 7 55 9 116 3 61 7 124 9 139 3 15 8 52 11 82 9 79 14
112 19 136 2 12 7 39 10 60 4 22 8 46 11 54 2 8 6 26 9 40 3 14 7 36 11 50 3
14 7 34 9 45 6 31 82 276 96 310 4 11 18 47 31 80 12 33 47 112 77 175 30 63
56 121 58 129 1 8 6 17 11 20 4 3 15 20 24 36 38 74 65 121 76 133 6 6 15 21
18 32 3 11 11 20 16 20 5 0 9 5 9 10 0 14 153 232 190 270 8 9 29 33 45 54 50
64 181 201 282 297 147 139 414 336 573 422 19 11 38 24 41 29 3 5 8 9 10 7 4
-2 64 27 124 61 18 10 35 17 38 14 2 -2 10 2 17 11 7 8 20 15 29 15 9 0 21 4
26 9 14 14 202 88 325 128 96 32 296 85 363 97 15 3 35 7 45 10 9 2 40 7 67
11 28 3 59 8 70 11 11 3 43 7 70 10 28 2 77 7 110 11 33 3 99 6 147 7 49 0 88
3 88 6 0 3 16 5 35 5 19 0 35 -2 35 -5z"/>
<path d="M10637 5518 c-26 -21 -33 -56 -31 -176 1 -160 -3 -156 200 -157 148
-1 157 1 180 22 23 21 24 28 24 151 0 177 6 172 -201 172 -109 0 -160 -4 -172
-12z"/>
<path d="M13074 5479 c-50 -18 -48 26 -49 -1007 0 -532 1 -975 4 -985 6 -28
58 -49 127 -50 35 -1 64 0 64 3 0 6 88 3 106 -4 8 -3 26 5 41 18 l28 24 2 284
c1 155 2 289 2 296 1 7 16 -4 34 -25 17 -20 52 -58 77 -83 146 -151 250 -264
250 -271 0 -5 7 -9 15 -9 8 0 15 -3 15 -7 0 -5 44 -54 98 -110 98 -103 98
-103 158 -111 33 -4 73 -5 89 -1 15 5 32 6 38 2 20 -12 155 -4 186 11 53 28
44 59 -46 152 -32 34 -105 112 -163 175 -58 62 -116 125 -130 139 -14 14 -70
75 -125 135 -55 60 -116 125 -135 145 -61 62 -64 67 -47 85 9 8 17 15 20 15 2
0 38 33 79 73 41 39 128 122 193 182 332 308 341 319 297 363 -17 17 -37 19
-189 18 l-170 -1 -37 -28 c-20 -16 -61 -52 -90 -80 -29 -29 -108 -104 -176
-167 -67 -63 -147 -139 -177 -168 -31 -29 -58 -50 -61 -48 -8 9 -8 266 1 266
5 0 5 5 1 11 -10 16 -11 229 -1 229 5 0 5 5 1 11 -10 16 -11 229 -1 229 5 0 5
5 1 11 -10 17 -11 180 -1 202 5 10 4 17 -3 17 -6 0 -9 4 -6 8 2 4 -4 18 -14
32 -17 23 -23 24 -152 25 -74 1 -144 -2 -154 -6z"/>
<path d="M11900 4957 c0 -4 -4 -6 -8 -3 -23 14 -250 -61 -260 -86 -2 -5 -7 -6
-12 -3 -4 2 -15 -4 -25 -15 -10 -11 -22 -20 -26 -20 -14 0 -102 -92 -130 -135
-49 -75 -56 -90 -77 -155 -26 -83 -47 -200 -43 -247 2 -22 2 -36 0 -108 0 -38
0 -72 0 -75 1 -3 3 -36 5 -75 6 -98 38 -222 77 -295 80 -148 250 -273 414
-306 11 -2 31 -7 45 -10 56 -14 257 -13 335 2 82 15 108 21 113 24 1 2 5 3 10
4 23 5 152 70 152 77 0 5 6 9 14 9 8 0 45 31 84 68 115 113 179 268 141 339
-16 29 -38 32 -204 31 -158 -1 -155 1 -196 -93 -24 -55 -80 -120 -122 -141
-91 -48 -255 -38 -343 19 -55 37 -106 128 -122 222 -13 73 -6 440 8 440 1 0 3
8 5 18 7 37 50 114 81 143 32 31 86 61 127 71 32 7 150 11 162 4 6 -3 19 -7
30 -8 33 -6 103 -52 129 -86 13 -17 38 -60 55 -94 37 -75 44 -77 224 -75 143
1 173 11 179 59 6 49 -37 166 -86 238 -77 111 -270 232 -401 250 -16 3 -41 7
-55 11 -39 9 -280 10 -280 1z"/>
<path d="M8852 4929 c-12 -5 -25 -21 -29 -39 -10 -39 -8 -907 2 -970 4 -25 8
-52 9 -60 4 -24 27 -91 49 -140 63 -143 195 -256 332 -286 155 -34 287 -28
423 20 56 20 141 77 189 127 l39 39 1 -70 c2 -47 7 -76 17 -85 22 -22 58 -33
81 -25 11 4 29 5 40 3 24 -4 153 -5 177 0 9 2 26 11 36 20 18 16 19 32 18 162
0 80 3 145 7 145 5 0 5 5 1 11 -6 11 -10 170 -4 194 1 6 1 15 0 20 -1 6 -1
125 -1 265 1 307 1 252 0 423 -1 78 0 147 1 152 6 25 -2 55 -19 76 -18 23 -25
24 -162 25 -152 2 -208 -10 -210 -45 0 -9 -2 -212 -3 -451 -3 -416 -8 -520
-27 -520 -5 0 -8 -3 -7 -7 3 -18 -22 -61 -60 -101 -50 -53 -114 -82 -195 -88
-34 -3 -68 -7 -74 -9 -7 -2 -13 -1 -13 4 0 4 -6 8 -14 8 -38 0 -110 29 -145
59 -34 30 -78 99 -85 136 -2 7 -6 30 -11 52 -4 21 -8 235 -8 475 0 403 -1 438
-18 462 -18 26 -18 26 -167 26 -82 0 -158 -4 -170 -8z"/>
<path d="M10641 4916 c-10 -12 -19 -30 -19 -41 -6 -111 -5 -235 1 -235 5 0 5
-5 1 -11 -10 -16 -11 -229 -1 -229 5 0 5 -5 1 -12 -10 -16 -11 -468 -1 -468 5
0 5 -5 1 -11 -10 -16 -11 -229 -1 -229 5 0 5 -6 0 -12 -8 -13 -6 -160 3 -189
3 -9 18 -22 33 -29 28 -11 161 -20 161 -10 0 3 29 3 65 2 57 -3 67 -1 88 20
l23 23 0 707 c-1 665 -2 708 -19 725 -15 16 -38 18 -167 19 -139 0 -151 -1
-169 -20z"/>
</g>
</svg>
