<svg width="64" height="74" viewBox="0 0 64 74" fill="none" xmlns="http://www.w3.org/2000/svg">
<path d="M56.393 36.4446C56.7255 37.9385 56.9263 39.4833 56.9832 41.0657L53.9852 41.1735C53.995 41.4476 54 41.7231 54 42C54 42.2769 53.995 42.5524 53.9852 42.8265L56.9832 42.9343C56.9263 44.5167 56.7255 46.0615 56.393 47.5554L53.4646 46.9038C53.345 47.4412 53.2062 47.971 53.0487 48.4924L55.9207 49.3595C55.4667 50.8632 54.8766 52.3065 54.1643 53.6745L51.5034 52.289C51.25 52.7755 50.9792 53.2512 50.6915 53.7152L53.2413 55.2959C52.4189 56.6224 51.4759 57.8649 50.4269 59.008L48.2166 56.9795C47.8468 57.3825 47.462 57.7713 47.0631 58.1452L49.1146 60.3341C47.9822 61.3954 46.7494 62.3509 45.4307 63.1851L43.8269 60.6497C43.3664 60.941 42.894 61.2154 42.4106 61.4721L43.8173 64.1218C42.4556 64.8447 41.0165 65.4442 39.5137 65.9056L38.6333 63.0377C38.1143 63.197 37.5864 63.3376 37.0504 63.4587L37.7116 66.385C36.2213 66.7217 34.6773 66.9254 33.0918 66.9831L32.9828 63.985C32.7092 63.995 32.434 64 32.1572 64C31.8792 64 31.6025 63.9949 31.3273 63.9849L31.2179 66.9829C29.6276 66.9249 28.075 66.7202 26.5733 66.382L27.2324 63.4553C26.6927 63.3337 26.1605 63.1926 25.6367 63.0327L24.7609 65.9021C23.2514 65.4413 21.8023 64.8432 20.4285 64.1225L21.8223 61.4659C21.3335 61.2094 20.8554 60.9353 20.389 60.6443L18.8012 63.1898C17.4701 62.3595 16.2228 61.4087 15.0748 60.353L17.1055 58.1448C16.6997 57.7716 16.3081 57.3836 15.9314 56.9816L13.7423 59.0329C12.6745 57.8934 11.7126 56.6547 10.8721 55.3323L13.4039 53.723C13.1092 53.2593 12.8315 52.7841 12.5718 52.2982L9.92611 53.7126C9.19401 52.3432 8.58629 50.8981 8.11791 49.3922L10.9825 48.5012C10.8202 47.9793 10.6769 47.449 10.5535 46.9111L7.62948 47.5822C7.28506 46.0815 7.07653 44.5293 7.01743 42.9393L10.0154 42.8278C10.0052 42.5533 10 42.2773 10 42C10 41.7227 10.0052 41.4467 10.0154 41.1722L7.01743 41.0607C7.07653 39.4707 7.28506 37.9185 7.62948 36.4178L10.5535 37.0889C10.6769 36.551 10.8202 36.0207 10.9825 35.4988L8.11791 34.6078C8.58629 33.1019 9.19401 31.6568 9.92611 30.2874L12.5718 31.7018C12.8315 31.2159 13.1092 30.7407 13.4039 30.277L10.8721 28.6677C11.7126 27.3453 12.6745 26.1066 13.7423 24.9671L15.9314 27.0184C16.3081 26.6164 16.6997 26.2284 17.1055 25.8552L15.0748 23.647C16.2228 22.5913 17.4701 21.6405 18.8012 20.8103L20.389 23.3557C20.8554 23.0647 21.3335 22.7906 21.8223 22.5341L20.4285 19.8775C21.8023 19.1568 23.2513 18.5587 24.7609 18.0979L25.6367 20.9673C26.1605 20.8074 26.6927 20.6663 27.2324 20.5447L26.5733 17.618C28.075 17.2798 29.6276 17.0751 31.2179 17.0171L31.3273 20.0151C31.6025 20.0051 31.8792 20 32.1572 20C32.434 20 32.7092 20.005 32.9828 20.015L33.0918 17.0169C34.6773 17.0746 36.2213 17.2783 37.7116 17.615L37.0504 20.5413C37.5864 20.6624 38.1143 20.803 38.6333 20.9623L39.5137 18.0944C41.0165 18.5558 42.4556 19.1553 43.8173 19.8782L42.4106 22.5279C42.894 22.7846 43.3664 23.059 43.8269 23.3503L45.4307 20.8149C46.7494 21.6491 47.9822 22.6046 49.1146 23.6659L47.0631 25.8548C47.462 26.2287 47.8468 26.6175 48.2166 27.0205L50.4269 24.992C51.4759 26.1351 52.4189 27.3776 53.2413 28.7041L50.6915 30.2848C50.9792 30.7488 51.25 31.2245 51.5034 31.711L54.1643 30.3254C54.8766 31.6935 55.4667 33.1368 55.9207 34.6405L53.0487 35.5076C53.2062 36.029 53.345 36.5588 53.4646 37.0962L56.393 36.4446Z" stroke="#01754B" stroke-width="6" stroke-dasharray="2 5"/>
<path d="M53.2472 22.8219C54.3518 22.8237 55.2487 21.9297 55.2505 20.8252L55.2799 2.82519C55.2817 1.72062 54.3877 0.823733 53.2831 0.821931C52.1786 0.820128 51.2817 1.7141 51.2799 2.81866L51.2538 18.8186L35.2538 18.7925C34.1492 18.7907 33.2523 19.6847 33.2505 20.7893C33.2487 21.8938 34.1427 22.7907 35.2473 22.7925L53.2472 22.8219ZM32.1005 12.0002L32.1071 10.0002L32.1005 12.0002ZM10.8927 20.6818L12.2998 22.1031L10.8927 20.6818ZM2.00066 41.8016L0.000700951 41.7883L2.00066 41.8016ZM10.6125 63.0371L12.0383 61.6346L10.6125 63.0371ZM31.7037 71.9985L31.6838 73.9984L31.7037 71.9985ZM54.667 19.41C48.6885 13.4119 40.576 10.0282 32.1071 10.0002L32.0939 14.0002C39.5043 14.0247 46.6027 16.9855 51.834 22.2338L54.667 19.41ZM32.1071 10.0002C23.6383 9.97217 15.5036 13.3022 9.48553 19.2606L12.2998 22.1031C17.5657 16.8894 24.6836 13.9756 32.0939 14.0002L32.1071 10.0002ZM9.48553 19.2606C3.46744 25.219 0.0567175 33.3199 0.000700951 41.7883L4.00061 41.8148C4.04963 34.405 7.03399 27.3167 12.2998 22.1031L9.48553 19.2606ZM0.000700951 41.7883C-0.0553157 50.2568 3.24795 58.4021 9.18669 64.4396L12.0383 61.6346C6.84193 56.3518 3.9516 49.2246 4.00061 41.8148L0.000700951 41.7883ZM9.18669 64.4396C15.1254 70.4771 23.2153 73.9144 31.6838 73.9984L31.7235 69.9986C24.3135 69.9251 17.2348 66.9174 12.0383 61.6346L9.18669 64.4396ZM31.6838 73.9984C40.1523 74.0824 48.3088 70.8063 54.3662 64.8878L51.5708 62.0268C46.2705 67.2055 39.1335 70.0721 31.7235 69.9986L31.6838 73.9984ZM54.3662 64.8878C60.4236 58.9694 63.8878 50.8912 63.9998 42.4233L60.0002 42.3704C59.9021 49.7797 56.871 56.8481 51.5708 62.0268L54.3662 64.8878Z" fill="#01754B"/>
<path d="M21.242 49C21.122 49 21.02 48.958 20.936 48.874C20.852 48.79 20.81 48.688 20.81 48.568V47.65C20.81 47.326 20.96 47.044 21.26 46.804L24.104 43.978C25.34 43.006 26.198 42.25 26.678 41.71C27.17 41.158 27.416 40.618 27.416 40.09C27.416 39.526 27.26 39.082 26.948 38.758C26.648 38.434 26.192 38.272 25.58 38.272C24.98 38.272 24.506 38.452 24.158 38.812C23.81 39.16 23.594 39.616 23.51 40.18C23.474 40.324 23.408 40.432 23.312 40.504C23.216 40.564 23.108 40.594 22.988 40.594H21.386C21.278 40.594 21.188 40.558 21.116 40.486C21.044 40.414 21.008 40.33 21.008 40.234C21.032 39.526 21.224 38.866 21.584 38.254C21.944 37.63 22.466 37.132 23.15 36.76C23.834 36.376 24.638 36.184 25.562 36.184C26.522 36.184 27.332 36.352 27.992 36.688C28.664 37.012 29.168 37.462 29.504 38.038C29.84 38.614 30.008 39.268 30.008 40C30.008 40.804 29.78 41.53 29.324 42.178C28.88 42.826 28.196 43.522 27.272 44.266L24.716 46.858H29.846C29.978 46.858 30.08 46.9 30.152 46.984C30.236 47.056 30.278 47.158 30.278 47.29V48.568C30.278 48.688 30.236 48.79 30.152 48.874C30.08 48.958 29.978 49 29.846 49H21.242ZM38.1315 49C38.0115 49 37.9095 48.958 37.8255 48.874C37.7415 48.79 37.6995 48.688 37.6995 48.568V46.264H31.9935C31.8735 46.264 31.7715 46.222 31.6875 46.138C31.6035 46.054 31.5615 45.952 31.5615 45.832V44.608C31.5615 44.416 31.6275 44.236 31.7595 44.068L37.0695 36.706C37.1295 36.61 37.2195 36.538 37.3395 36.49C37.4595 36.43 37.5915 36.4 37.7355 36.4H39.6975C39.8295 36.4 39.9315 36.442 40.0035 36.526C40.0875 36.598 40.1295 36.7 40.1295 36.832V44.14H41.7315C41.8635 44.14 41.9715 44.182 42.0555 44.266C42.1395 44.338 42.1815 44.44 42.1815 44.572V45.832C42.1815 45.952 42.1395 46.054 42.0555 46.138C41.9715 46.222 41.8695 46.264 41.7495 46.264H40.1295V48.568C40.1295 48.688 40.0875 48.79 40.0035 48.874C39.9315 48.958 39.8295 49 39.6975 49H38.1315ZM37.7535 44.212V39.01L34.0635 44.212H37.7535Z" fill="white"/>
</svg>
