<svg width="138" height="14" viewBox="0 0 138 14" fill="none" xmlns="http://www.w3.org/2000/svg">
<path d="M5.274 12.906C5.154 12.906 5.052 12.87 4.968 12.798C4.896 12.714 4.86 12.612 4.86 12.492V8.748H1.17C1.05 8.748 0.948 8.712 0.864 8.64C0.792 8.556 0.756 8.454 0.756 8.334V7.758C0.756 7.638 0.792 7.542 0.864 7.47C0.948 7.386 1.05 7.344 1.17 7.344H4.86V3.708C4.86 3.588 4.896 3.492 4.968 3.42C5.052 3.336 5.154 3.294 5.274 3.294H5.904C6.024 3.294 6.12 3.336 6.192 3.42C6.276 3.492 6.318 3.588 6.318 3.708V7.344H10.026C10.146 7.344 10.242 7.386 10.314 7.47C10.398 7.542 10.44 7.638 10.44 7.758V8.334C10.44 8.454 10.398 8.556 10.314 8.64C10.242 8.712 10.146 8.748 10.026 8.748H6.318V12.492C6.318 12.612 6.276 12.714 6.192 12.798C6.12 12.87 6.024 12.906 5.904 12.906H5.274ZM12.93 13.5C12.822 13.5 12.732 13.464 12.66 13.392C12.6 13.308 12.57 13.212 12.57 13.104L12.606 12.942L17.088 2.466H11.184C11.064 2.466 10.962 2.43 10.878 2.358C10.806 2.274 10.77 2.172 10.77 2.052V1.332C10.77 1.2 10.806 1.098 10.878 1.026C10.962 0.941999 11.064 0.899999 11.184 0.899999H18.564C18.696 0.899999 18.798 0.941999 18.87 1.026C18.954 1.098 18.996 1.2 18.996 1.332V1.998C18.996 2.214 18.948 2.448 18.852 2.7L14.424 13.05C14.364 13.182 14.292 13.29 14.208 13.374C14.136 13.458 14.034 13.5 13.902 13.5H12.93ZM22.9506 13.5C22.8426 13.5 22.7526 13.464 22.6806 13.392C22.6206 13.308 22.5906 13.212 22.5906 13.104C22.5906 13.02 22.6146 12.942 22.6626 12.87L25.4166 9.036C25.1286 9.108 24.8046 9.144 24.4446 9.144C23.5926 9.132 22.8366 8.934 22.1766 8.55C21.5286 8.166 21.0306 7.656 20.6826 7.02C20.3346 6.384 20.1606 5.706 20.1606 4.986C20.1606 4.266 20.3286 3.582 20.6646 2.934C21.0126 2.274 21.5286 1.74 22.2126 1.332C22.8966 0.923999 23.7246 0.719999 24.6966 0.719999C25.6686 0.719999 26.4966 0.917999 27.1806 1.314C27.8766 1.71 28.3986 2.232 28.7466 2.88C29.0946 3.528 29.2686 4.218 29.2686 4.95C29.2686 5.598 29.1546 6.174 28.9266 6.678C28.6986 7.17 28.3806 7.71 27.9726 8.298L24.4986 13.14C24.4146 13.248 24.3306 13.338 24.2466 13.41C24.1746 13.47 24.0666 13.5 23.9226 13.5H22.9506ZM24.6966 7.686C25.2006 7.686 25.6626 7.578 26.0826 7.362C26.5146 7.134 26.8566 6.816 27.1086 6.408C27.3606 5.988 27.4866 5.508 27.4866 4.968C27.4866 4.428 27.3606 3.954 27.1086 3.546C26.8566 3.126 26.5146 2.808 26.0826 2.592C25.6626 2.364 25.2006 2.25 24.6966 2.25C24.1926 2.25 23.7306 2.364 23.3106 2.592C22.8906 2.808 22.5546 3.126 22.3026 3.546C22.0626 3.954 21.9426 4.428 21.9426 4.968C21.9426 5.508 22.0626 5.988 22.3026 6.408C22.5546 6.816 22.8906 7.134 23.3106 7.362C23.7306 7.578 24.1926 7.686 24.6966 7.686ZM35.1145 13.5C34.9945 13.5 34.8925 13.464 34.8085 13.392C34.7365 13.308 34.7005 13.206 34.7005 13.086V3.006L31.7125 5.31C31.6285 5.382 31.5385 5.418 31.4425 5.418C31.3345 5.418 31.2325 5.358 31.1365 5.238L30.6685 4.644C30.6085 4.56 30.5785 4.476 30.5785 4.392C30.5785 4.248 30.6385 4.134 30.7585 4.05L34.6825 1.026C34.8145 0.941999 34.9705 0.899999 35.1505 0.899999H36.0685C36.1885 0.899999 36.2845 0.941999 36.3565 1.026C36.4405 1.098 36.4825 1.194 36.4825 1.314V13.086C36.4825 13.206 36.4405 13.308 36.3565 13.392C36.2845 13.464 36.1885 13.5 36.0685 13.5H35.1145ZM39.1417 13.5C39.0217 13.5 38.9197 13.464 38.8357 13.392C38.7637 13.308 38.7277 13.206 38.7277 13.086V12.51C38.7277 12.234 38.8777 11.97 39.1777 11.718L42.9937 7.902C43.9177 7.134 44.5537 6.51 44.9017 6.03C45.2497 5.538 45.4237 5.022 45.4237 4.482C45.4237 3.786 45.2257 3.24 44.8297 2.844C44.4457 2.448 43.8817 2.25 43.1377 2.25C42.4417 2.25 41.8837 2.46 41.4637 2.88C41.0437 3.288 40.7857 3.834 40.6897 4.518C40.6657 4.662 40.6057 4.77 40.5097 4.842C40.4257 4.902 40.3297 4.932 40.2217 4.932H39.2857C39.1777 4.932 39.0877 4.902 39.0157 4.842C38.9437 4.77 38.9077 4.686 38.9077 4.59C38.9317 3.942 39.1057 3.324 39.4297 2.736C39.7537 2.136 40.2277 1.65 40.8517 1.278C41.4877 0.894 42.2497 0.702 43.1377 0.702C44.4937 0.702 45.5137 1.056 46.1977 1.764C46.8937 2.46 47.2417 3.348 47.2417 4.428C47.2417 5.184 47.0497 5.868 46.6657 6.48C46.2937 7.08 45.7117 7.728 44.9197 8.424L41.4637 11.934H47.0797C47.2117 11.934 47.3137 11.976 47.3857 12.06C47.4697 12.132 47.5117 12.228 47.5117 12.348V13.086C47.5117 13.206 47.4697 13.308 47.3857 13.392C47.3017 13.464 47.1997 13.5 47.0797 13.5H39.1417ZM58.0783 13.68C57.1663 13.68 56.3803 13.518 55.7203 13.194C55.0603 12.87 54.5503 12.444 54.1903 11.916C53.8423 11.388 53.6563 10.824 53.6323 10.224V10.188C53.6323 10.092 53.6683 10.014 53.7403 9.954C53.8123 9.894 53.8963 9.864 53.9923 9.864H54.9643C55.2163 9.864 55.3783 9.996 55.4503 10.26C55.6183 10.896 55.9423 11.37 56.4223 11.682C56.9023 11.994 57.4543 12.15 58.0783 12.15C58.8823 12.15 59.5483 11.91 60.0763 11.43C60.6163 10.938 60.8863 10.26 60.8863 9.396C60.8863 8.616 60.6163 7.986 60.0763 7.506C59.5483 7.026 58.8823 6.786 58.0783 6.786C57.6463 6.786 57.2983 6.846 57.0343 6.966C56.7703 7.074 56.5063 7.23 56.2423 7.434C56.0983 7.542 55.9723 7.626 55.8643 7.686C55.7683 7.734 55.6603 7.758 55.5403 7.758H54.6043C54.4963 7.758 54.4003 7.722 54.3163 7.65C54.2323 7.566 54.1963 7.47 54.2083 7.362L54.7843 1.35C54.7963 1.206 54.8383 1.098 54.9103 1.026C54.9943 0.941999 55.1023 0.899999 55.2343 0.899999H61.5163C61.6363 0.899999 61.7323 0.941999 61.8043 1.026C61.8883 1.098 61.9303 1.194 61.9303 1.314V2.016C61.9303 2.136 61.8883 2.238 61.8043 2.322C61.7323 2.394 61.6363 2.43 61.5163 2.43H56.3323L55.9903 5.976C56.6383 5.568 57.4183 5.364 58.3303 5.364C59.1223 5.364 59.8483 5.526 60.5083 5.85C61.1803 6.174 61.7083 6.642 62.0923 7.254C62.4883 7.866 62.6863 8.586 62.6863 9.414C62.6863 10.302 62.4883 11.07 62.0923 11.718C61.7083 12.354 61.1683 12.84 60.4723 13.176C59.7763 13.512 58.9783 13.68 58.0783 13.68ZM70.7278 13.5C70.6078 13.5 70.5058 13.464 70.4218 13.392C70.3498 13.308 70.3138 13.206 70.3138 13.086V10.494H64.4818C64.3618 10.494 64.2598 10.458 64.1758 10.386C64.1038 10.302 64.0678 10.2 64.0678 10.08V9.36C64.0678 9.18 64.1338 9 64.2658 8.82L69.6658 1.206C69.7258 1.11 69.8158 1.038 69.9358 0.989999C70.0558 0.929999 70.1878 0.899999 70.3318 0.899999H71.6278C71.7478 0.899999 71.8438 0.941999 71.9158 1.026C71.9998 1.098 72.0418 1.194 72.0418 1.314V8.928H73.6618C73.7818 8.928 73.8838 8.97 73.9678 9.054C74.0518 9.126 74.0938 9.222 74.0938 9.342V10.08C74.0938 10.2 74.0518 10.302 73.9678 10.386C73.8958 10.458 73.7998 10.494 73.6798 10.494H72.0418V13.086C72.0418 13.206 71.9998 13.308 71.9158 13.392C71.8438 13.464 71.7478 13.5 71.6278 13.5H70.7278ZM70.3318 8.964V2.79L65.9938 8.964H70.3318ZM81.9075 13.5C81.7875 13.5 81.6855 13.464 81.6015 13.392C81.5295 13.308 81.4935 13.206 81.4935 13.086V10.494H75.6615C75.5415 10.494 75.4395 10.458 75.3555 10.386C75.2835 10.302 75.2475 10.2 75.2475 10.08V9.36C75.2475 9.18 75.3135 9 75.4455 8.82L80.8455 1.206C80.9055 1.11 80.9955 1.038 81.1155 0.989999C81.2355 0.929999 81.3675 0.899999 81.5115 0.899999H82.8075C82.9275 0.899999 83.0235 0.941999 83.0955 1.026C83.1795 1.098 83.2215 1.194 83.2215 1.314V8.928H84.8415C84.9615 8.928 85.0635 8.97 85.1475 9.054C85.2315 9.126 85.2735 9.222 85.2735 9.342V10.08C85.2735 10.2 85.2315 10.302 85.1475 10.386C85.0755 10.458 84.9795 10.494 84.8595 10.494H83.2215V13.086C83.2215 13.206 83.1795 13.308 83.0955 13.392C83.0235 13.464 82.9275 13.5 82.8075 13.5H81.9075ZM81.5115 8.964V2.79L77.1735 8.964H81.5115ZM95.8253 13.68C94.8653 13.68 94.0313 13.488 93.3233 13.104C92.6153 12.708 92.0753 12.18 91.7033 11.52C91.3313 10.86 91.1453 10.14 91.1453 9.36C91.1453 8.724 91.2713 8.124 91.5233 7.56C91.7873 6.984 92.0813 6.474 92.4053 6.03L95.8253 1.26C95.8373 1.248 95.8733 1.206 95.9333 1.134C95.9813 1.062 96.0473 1.008 96.1313 0.971999C96.2153 0.923999 96.3113 0.899999 96.4193 0.899999H97.3733C97.4813 0.899999 97.5653 0.941999 97.6253 1.026C97.6973 1.098 97.7333 1.188 97.7333 1.296C97.7333 1.38 97.7093 1.458 97.6613 1.53L95.0332 5.202C95.2973 5.118 95.6393 5.076 96.0593 5.076C96.9233 5.088 97.6853 5.286 98.3453 5.67C99.0173 6.054 99.5333 6.57 99.8933 7.218C100.265 7.866 100.451 8.574 100.451 9.342C100.451 10.11 100.265 10.83 99.8933 11.502C99.5333 12.162 98.9993 12.69 98.2913 13.086C97.5953 13.482 96.7733 13.68 95.8253 13.68ZM95.8073 12.15C96.3233 12.15 96.7973 12.042 97.2293 11.826C97.6733 11.61 98.0213 11.292 98.2733 10.872C98.5373 10.44 98.6693 9.93 98.6693 9.342C98.6693 8.766 98.5373 8.268 98.2733 7.848C98.0213 7.428 97.6733 7.11 97.2293 6.894C96.7973 6.678 96.3233 6.57 95.8073 6.57C95.3033 6.57 94.8293 6.678 94.3853 6.894C93.9533 7.11 93.6053 7.428 93.3413 7.848C93.0773 8.268 92.9453 8.766 92.9453 9.342C92.9453 9.93 93.0773 10.44 93.3413 10.872C93.6053 11.292 93.9533 11.61 94.3853 11.826C94.8173 12.042 95.2913 12.15 95.8073 12.15ZM106.671 13.68C105.711 13.68 104.877 13.488 104.169 13.104C103.461 12.708 102.921 12.18 102.549 11.52C102.177 10.86 101.991 10.14 101.991 9.36C101.991 8.724 102.117 8.124 102.369 7.56C102.633 6.984 102.927 6.474 103.251 6.03L106.671 1.26C106.683 1.248 106.719 1.206 106.779 1.134C106.827 1.062 106.893 1.008 106.977 0.971999C107.061 0.923999 107.157 0.899999 107.265 0.899999H108.219C108.327 0.899999 108.411 0.941999 108.471 1.026C108.543 1.098 108.579 1.188 108.579 1.296C108.579 1.38 108.555 1.458 108.507 1.53L105.879 5.202C106.143 5.118 106.485 5.076 106.905 5.076C107.769 5.088 108.531 5.286 109.191 5.67C109.863 6.054 110.379 6.57 110.739 7.218C111.111 7.866 111.297 8.574 111.297 9.342C111.297 10.11 111.111 10.83 110.739 11.502C110.379 12.162 109.845 12.69 109.137 13.086C108.441 13.482 107.619 13.68 106.671 13.68ZM106.653 12.15C107.169 12.15 107.643 12.042 108.075 11.826C108.519 11.61 108.867 11.292 109.119 10.872C109.383 10.44 109.515 9.93 109.515 9.342C109.515 8.766 109.383 8.268 109.119 7.848C108.867 7.428 108.519 7.11 108.075 6.894C107.643 6.678 107.169 6.57 106.653 6.57C106.149 6.57 105.675 6.678 105.231 6.894C104.799 7.11 104.451 7.428 104.187 7.848C103.923 8.268 103.791 8.766 103.791 9.342C103.791 9.93 103.923 10.44 104.187 10.872C104.451 11.292 104.799 11.61 105.231 11.826C105.663 12.042 106.137 12.15 106.653 12.15ZM117.681 13.5C117.561 13.5 117.459 13.464 117.375 13.392C117.303 13.308 117.267 13.206 117.267 13.086V12.51C117.267 12.234 117.417 11.97 117.717 11.718L121.533 7.902C122.457 7.134 123.093 6.51 123.441 6.03C123.789 5.538 123.963 5.022 123.963 4.482C123.963 3.786 123.765 3.24 123.369 2.844C122.985 2.448 122.421 2.25 121.677 2.25C120.981 2.25 120.423 2.46 120.003 2.88C119.583 3.288 119.325 3.834 119.229 4.518C119.205 4.662 119.145 4.77 119.049 4.842C118.965 4.902 118.869 4.932 118.761 4.932H117.825C117.717 4.932 117.627 4.902 117.555 4.842C117.483 4.77 117.447 4.686 117.447 4.59C117.471 3.942 117.645 3.324 117.969 2.736C118.293 2.136 118.767 1.65 119.391 1.278C120.027 0.894 120.789 0.702 121.677 0.702C123.033 0.702 124.053 1.056 124.737 1.764C125.433 2.46 125.781 3.348 125.781 4.428C125.781 5.184 125.589 5.868 125.205 6.48C124.833 7.08 124.251 7.728 123.459 8.424L120.003 11.934H125.619C125.751 11.934 125.853 11.976 125.925 12.06C126.009 12.132 126.051 12.228 126.051 12.348V13.086C126.051 13.206 126.009 13.308 125.925 13.392C125.841 13.464 125.739 13.5 125.619 13.5H117.681ZM132.673 13.68C131.737 13.68 130.915 13.53 130.207 13.23C129.499 12.918 128.947 12.474 128.551 11.898C128.155 11.322 127.957 10.65 127.957 9.882C127.957 9.174 128.131 8.556 128.479 8.028C128.827 7.488 129.301 7.074 129.901 6.786C129.421 6.51 129.049 6.15 128.785 5.706C128.533 5.25 128.407 4.722 128.407 4.122C128.407 3.066 128.791 2.238 129.559 1.638C130.339 1.026 131.377 0.719999 132.673 0.719999C133.957 0.719999 134.983 1.026 135.751 1.638C136.531 2.238 136.921 3.06 136.921 4.104C136.921 4.704 136.789 5.232 136.525 5.688C136.273 6.132 135.913 6.498 135.445 6.786C136.045 7.074 136.519 7.488 136.867 8.028C137.215 8.556 137.389 9.174 137.389 9.882C137.389 10.65 137.191 11.322 136.795 11.898C136.399 12.474 135.841 12.918 135.121 13.23C134.413 13.53 133.597 13.68 132.673 13.68ZM132.673 6.138C133.393 6.126 133.999 5.94 134.491 5.58C134.983 5.22 135.229 4.746 135.229 4.158C135.229 3.558 134.983 3.078 134.491 2.718C134.011 2.346 133.405 2.16 132.673 2.16C131.929 2.16 131.311 2.34 130.819 2.7C130.339 3.06 130.099 3.546 130.099 4.158C130.099 4.758 130.339 5.238 130.819 5.598C131.311 5.958 131.929 6.138 132.673 6.138ZM132.673 12.24C133.513 12.24 134.215 12.024 134.779 11.592C135.343 11.16 135.625 10.59 135.625 9.882C135.625 9.174 135.343 8.61 134.779 8.19C134.215 7.77 133.513 7.56 132.673 7.56C131.821 7.56 131.113 7.77 130.549 8.19C129.985 8.61 129.703 9.174 129.703 9.882C129.703 10.59 129.985 11.16 130.549 11.592C131.113 12.024 131.821 12.24 132.673 12.24Z" fill="white"/>
</svg>
