<svg width="20" height="20" viewBox="0 0 20 20" fill="none" xmlns="http://www.w3.org/2000/svg">
<rect width="20" height="20" rx="3" fill="#C4C4C4"/>
<path fill-rule="evenodd" clip-rule="evenodd" d="M18.5871 5.67714C18.7116 5.28714 18.5871 5 17.9909 5H16.0222C15.5212 5 15.2902 5.24786 15.165 5.52143C15.165 5.52143 14.1637 7.80429 12.7455 9.28714C12.2865 9.71714 12.078 9.85357 11.8275 9.85357C11.7023 9.85357 11.514 9.71714 11.514 9.32643V5.67714C11.514 5.20857 11.376 5 10.959 5H7.86311C7.55036 5 7.36212 5.21714 7.36212 5.42357C7.36212 5.86714 8.0716 5.97 8.14435 7.21857V9.93143C8.14435 10.5264 8.0296 10.6343 7.77911 10.6343C7.11162 10.6343 5.48791 8.34071 4.52418 5.71643C4.33743 5.20571 4.14843 5 3.64519 5H1.67499C1.1125 5 1 5.24786 1 5.52143C1 6.00857 1.66749 8.42857 4.10868 11.6293C5.73615 13.815 8.02735 15 10.1146 15C11.3663 15 11.5208 14.7371 11.5208 14.2836V12.6314C11.5208 12.105 11.6393 12 12.036 12C12.3285 12 12.8288 12.1371 13.9972 13.1907C15.3322 14.44 15.5519 15 16.3034 15H18.2721C18.8346 15 19.1166 14.7371 18.9546 14.2171C18.7761 13.7 18.1386 12.9493 17.2934 12.0586C16.8344 11.5514 16.1459 11.005 15.9367 10.7314C15.6449 10.3807 15.7282 10.2243 15.9367 9.91214C15.9367 9.91214 18.3366 6.75071 18.5864 5.67714H18.5871Z" fill="black"/>
</svg>
